<svg width="28" height="16" viewBox="0 0 28 16" fill="none" xmlns="http://www.w3.org/2000/svg">
<path d="M1 8.85547C0.447715 8.85547 -9.29479e-08 8.40775 0 7.85547C9.29479e-08 7.30318 0.447715 6.85547 1 6.85547L1 8.85547ZM27.7071 7.14837C28.0976 7.53889 28.0976 8.17206 27.7071 8.56258L21.3431 14.9265C20.9526 15.3171 20.3195 15.3171 19.9289 14.9265C19.5384 14.536 19.5384 13.9029 19.9289 13.5123L25.5858 7.85547L19.9289 2.19862C19.5384 1.80809 19.5384 1.17493 19.9289 0.784404C20.3195 0.39388 20.9526 0.39388 21.3431 0.784404L27.7071 7.14837ZM1 6.85547L27 6.85547L27 8.85547L1 8.85547L1 6.85547Z" fill="white"/>
</svg>
