<svg width="16" height="17" viewBox="0 0 16 17" fill="none" xmlns="http://www.w3.org/2000/svg">
<path d="M12.0625 1.5C12.4307 1.5 12.7292 1.79848 12.7292 2.16667C12.7292 2.53486 12.4307 2.83333 12.0625 2.83333H2.60417C2.45459 2.83333 2.33333 2.95459 2.33333 3.10417V12.5625C2.33333 12.9307 2.03486 13.2292 1.66667 13.2292C1.29848 13.2292 1 12.9307 1 12.5625V3.10417C1 2.21821 1.71821 1.5 2.60417 1.5H12.0625Z" fill="#8C8C8C"/>
<path fill-rule="evenodd" clip-rule="evenodd" d="M5.27083 4.16667C4.38488 4.16667 3.66667 4.88488 3.66667 5.77083V13.8958C3.66667 14.7818 4.38488 15.5 5.27083 15.5H13.3958C14.2818 15.5 15 14.7818 15 13.8958V5.77083C15 4.88488 14.2818 4.16667 13.3958 4.16667H5.27083ZM5 5.77083C5 5.62126 5.12126 5.5 5.27083 5.5H13.3958C13.5454 5.5 13.6667 5.62126 13.6667 5.77083V13.8958C13.6667 14.0454 13.5454 14.1667 13.3958 14.1667H5.27083C5.12126 14.1667 5 14.0454 5 13.8958V5.77083Z" fill="#8C8C8C"/>
</svg>
