<svg width="16" height="16" viewBox="0 0 16 16" fill="none" xmlns="http://www.w3.org/2000/svg">
<g clip-path="url(#clip0_1394_6030)">
<path d="M5.33301 10.6654V12.532C5.33301 13.2788 5.33301 13.6521 5.47833 13.9374C5.60616 14.1882 5.81014 14.3922 6.06102 14.52C6.34624 14.6654 6.7196 14.6654 7.46634 14.6654H12.533C13.2797 14.6654 13.6531 14.6654 13.9383 14.52C14.1892 14.3922 14.3932 14.1882 14.521 13.9374C14.6663 13.6521 14.6663 13.2788 14.6663 12.532V7.46536C14.6663 6.71863 14.6663 6.34526 14.521 6.06004C14.3932 5.80916 14.1892 5.60519 13.9383 5.47736C13.6531 5.33203 13.2797 5.33203 12.533 5.33203H10.6663M3.46634 10.6654H8.53301C9.27974 10.6654 9.65311 10.6654 9.93833 10.52C10.1892 10.3922 10.3932 10.1882 10.521 9.93735C10.6663 9.65214 10.6663 9.27877 10.6663 8.53203V3.46536C10.6663 2.71863 10.6663 2.34526 10.521 2.06004C10.3932 1.80916 10.1892 1.60519 9.93833 1.47736C9.65311 1.33203 9.27974 1.33203 8.53301 1.33203H3.46634C2.7196 1.33203 2.34624 1.33203 2.06102 1.47736C1.81014 1.60519 1.60616 1.80916 1.47833 2.06004C1.33301 2.34526 1.33301 2.71863 1.33301 3.46536V8.53203C1.33301 9.27877 1.33301 9.65214 1.47833 9.93735C1.60616 10.1882 1.81014 10.3922 2.06102 10.52C2.34624 10.6654 2.7196 10.6654 3.46634 10.6654Z" stroke="#ACACAC" stroke-width="1.5" stroke-linecap="round" stroke-linejoin="round"/>
</g>
<defs>
<clipPath id="clip0_1394_6030">
<rect width="16" height="16" fill="white"/>
</clipPath>
</defs>
</svg>
