<svg width="20" height="21" viewBox="0 0 20 21" fill="none" xmlns="http://www.w3.org/2000/svg">
<path fill-rule="evenodd" clip-rule="evenodd" d="M8.12822 4.00491C5.37821 4.66065 3.33329 7.13383 3.33329 10.0846C3.33329 13.5364 6.13151 16.3346 9.58329 16.3346C12.5341 16.3346 15.0073 14.2897 15.663 11.5397C14.7254 12.3556 13.5002 12.8498 12.159 12.8498C9.20933 12.8498 6.81816 10.4586 6.81816 7.50889C6.81816 6.1677 7.31229 4.94254 8.12822 4.00491ZM1.66663 10.0846C1.66663 5.71238 5.21104 2.16797 9.58329 2.16797C10.1318 2.16797 10.6682 2.22388 11.1866 2.33059C11.566 2.40868 11.8416 2.7379 11.8517 3.12513C11.8618 3.51235 11.6037 3.85547 11.2289 3.95319C9.64954 4.36494 8.48482 5.80194 8.48482 7.50889C8.48482 9.53812 10.1298 11.1831 12.159 11.1831C13.866 11.1831 15.303 10.0184 15.7147 8.43908C15.8124 8.06425 16.1555 7.80618 16.5428 7.81625C16.93 7.82632 17.2592 8.10188 17.3373 8.48128C17.444 8.99976 17.5 9.53612 17.5 10.0846C17.5 14.4569 13.9555 18.0013 9.58329 18.0013C5.21104 18.0013 1.66663 14.4569 1.66663 10.0846Z" fill="#1D1D1D"/>
</svg>
