<svg width="20" height="20" viewBox="0 0 20 20" fill="none" xmlns="http://www.w3.org/2000/svg">
<path fill-rule="evenodd" clip-rule="evenodd" d="M14.9748 3.08809C13.9982 2.111 12.4141 2.1113 11.4378 3.08876L4.23737 10.2979C3.92524 10.6104 3.74992 11.034 3.74992 11.4757V13.3308C3.74992 14.2513 4.49611 14.9975 5.41659 14.9975H7.2868C7.72895 14.9975 8.15299 14.8218 8.46557 14.5091L15.6616 7.3099C16.6374 6.33368 16.6374 4.75137 15.6616 3.77514L14.9748 3.08809ZM12.617 4.26657C12.9425 3.94075 13.4705 3.94065 13.796 4.26634L14.4828 4.9534C14.8081 5.27881 14.8081 5.80624 14.4828 6.13165L7.2868 13.3308L5.41659 13.3308V11.4757L12.617 4.26657Z" fill="#1D1D1D"/>
<path d="M2.91659 16.6642C2.45635 16.6642 2.08325 17.0372 2.08325 17.4975C2.08325 17.9577 2.45635 18.3308 2.91659 18.3308H17.9166C18.3768 18.3308 18.7499 17.9577 18.7499 17.4975C18.7499 17.0372 18.3768 16.6642 17.9166 16.6642H2.91659Z" fill="#1D1D1D"/>
</svg>
