<svg width="16" height="17" viewBox="0 0 16 17" fill="none" xmlns="http://www.w3.org/2000/svg">
<path fill-rule="evenodd" clip-rule="evenodd" d="M8 6.16667C7.38116 6.16667 6.78767 6.4125 6.35008 6.85008C5.9125 7.28767 5.66667 7.88116 5.66667 8.5C5.66667 9.11884 5.9125 9.71233 6.35008 10.1499C6.78767 10.5875 7.38116 10.8333 8 10.8333C8.61884 10.8333 9.21233 10.5875 9.64992 10.1499C10.0875 9.71233 10.3333 9.11884 10.3333 8.5C10.3333 7.88116 10.0875 7.28767 9.64992 6.85008C9.21233 6.4125 8.61884 6.16667 8 6.16667ZM7.29289 7.79289C7.48043 7.60536 7.73478 7.5 8 7.5C8.26522 7.5 8.51957 7.60536 8.70711 7.79289C8.89464 7.98043 9 8.23478 9 8.5C9 8.76522 8.89464 9.01957 8.70711 9.20711C8.51957 9.39464 8.26522 9.5 8 9.5C7.73478 9.5 7.48043 9.39464 7.29289 9.20711C7.10536 9.01957 7 8.76522 7 8.5C7 8.23478 7.10536 7.98043 7.29289 7.79289Z" fill="#8C8C8C"/>
<path fill-rule="evenodd" clip-rule="evenodd" d="M8 3.5C6.27718 3.5 4.74034 4.3281 3.56892 5.23013C2.38904 6.13867 1.50734 7.17803 1.08126 7.72339C0.722589 8.18246 0.722589 8.81754 1.08126 9.27661C1.50734 9.82197 2.38904 10.8613 3.56892 11.7699C4.74034 12.6719 6.27718 13.5 8 13.5C9.72283 13.5 11.2597 12.6719 12.4311 11.7699C13.611 10.8613 14.4927 9.82197 14.9187 9.27661C15.2774 8.81754 15.2774 8.18246 14.9187 7.72339C14.4927 7.17803 13.611 6.13867 12.4311 5.23013C11.2597 4.3281 9.72283 3.5 8 3.5ZM4.3824 10.7134C3.35603 9.92312 2.56885 9.00974 2.1667 8.5C2.56885 7.99026 3.35603 7.07688 4.3824 6.28655C5.44766 5.46627 6.69927 4.83333 8 4.83333C9.30074 4.83333 10.5523 5.46627 11.6176 6.28655C12.644 7.07688 13.4312 7.99026 13.8333 8.5C13.4312 9.00974 12.644 9.92312 11.6176 10.7134C10.5523 11.5337 9.30074 12.1667 8 12.1667C6.69927 12.1667 5.44766 11.5337 4.3824 10.7134Z" fill="#8C8C8C"/>
</svg>
