<svg width="48" height="49" viewBox="0 0 48 49" fill="none" xmlns="http://www.w3.org/2000/svg">
<path fill-rule="evenodd" clip-rule="evenodd" d="M1.12587 5.81213C0 7.97951 0 10.827 0 16.5219V32.3219C0 38.0168 0 40.8642 1.12587 43.0316C2.07462 44.8581 3.56382 46.3473 5.39026 47.296C7.55764 48.4219 10.4051 48.4219 16.1 48.4219H31.9C37.5949 48.4219 40.4424 48.4219 42.6097 47.296C44.4362 46.3473 45.9254 44.8581 46.8741 43.0316C48 40.8642 48 38.0168 48 32.3219V16.5219C48 10.827 48 7.97951 46.8741 5.81213C45.9254 3.9857 44.4362 2.4965 42.6097 1.54774C40.4424 0.421875 37.5949 0.421875 31.9 0.421875H16.1C10.4051 0.421875 7.55764 0.421875 5.39026 1.54774C3.56382 2.4965 2.07462 3.9857 1.12587 5.81213ZM34.4 24.4219L33.3333 31.0885H28V48.4219H20V31.0885H14V24.4219H20V19.0885C20 13.0885 23.8667 9.75519 29.3333 9.75519C31.0667 9.75519 32.9333 10.0219 34.6667 10.2885V16.4219H31.6C28.6667 16.4219 28 17.8885 28 19.7552V24.4219H34.4Z" fill="white" fill-opacity="0.7"/>
</svg>
