<svg width="138" height="30" viewBox="0 0 138 30" fill="none" xmlns="http://www.w3.org/2000/svg">
<path d="M68.4703 7.96V22H65.0503V16.22H59.7303V22H56.3103V7.96H59.7303V13.46H65.0503V7.96H68.4703ZM76.0192 22.16C74.9259 22.16 73.9392 21.9267 73.0592 21.46C72.1926 20.9933 71.5059 20.3267 70.9992 19.46C70.5059 18.5933 70.2592 17.58 70.2592 16.42C70.2592 15.2733 70.5126 14.2667 71.0192 13.4C71.5259 12.52 72.2192 11.8467 73.0992 11.38C73.9792 10.9133 74.9659 10.68 76.0592 10.68C77.1526 10.68 78.1392 10.9133 79.0192 11.38C79.8992 11.8467 80.5926 12.52 81.0992 13.4C81.6059 14.2667 81.8592 15.2733 81.8592 16.42C81.8592 17.5667 81.5992 18.58 81.0792 19.46C80.5726 20.3267 79.8726 20.9933 78.9792 21.46C78.0992 21.9267 77.1126 22.16 76.0192 22.16ZM76.0192 19.2C76.6726 19.2 77.2259 18.96 77.6792 18.48C78.1459 18 78.3792 17.3133 78.3792 16.42C78.3792 15.5267 78.1526 14.84 77.6992 14.36C77.2592 13.88 76.7126 13.64 76.0592 13.64C75.3926 13.64 74.8392 13.88 74.3992 14.36C73.9592 14.8267 73.7392 15.5133 73.7392 16.42C73.7392 17.3133 73.9526 18 74.3792 18.48C74.8192 18.96 75.3659 19.2 76.0192 19.2ZM97.9136 10.72C99.3003 10.72 100.4 11.14 101.214 11.98C102.04 12.82 102.454 13.9867 102.454 15.48V22H99.0536V15.94C99.0536 15.22 98.8603 14.6667 98.4736 14.28C98.1003 13.88 97.5803 13.68 96.9136 13.68C96.2469 13.68 95.7203 13.88 95.3336 14.28C94.9603 14.6667 94.7736 15.22 94.7736 15.94V22H91.3736V15.94C91.3736 15.22 91.1803 14.6667 90.7936 14.28C90.4203 13.88 89.9003 13.68 89.2336 13.68C88.5669 13.68 88.0403 13.88 87.6536 14.28C87.2803 14.6667 87.0936 15.22 87.0936 15.94V22H83.6736V10.84H87.0936V12.24C87.4403 11.7733 87.8936 11.4067 88.4536 11.14C89.0136 10.86 89.6469 10.72 90.3536 10.72C91.1936 10.72 91.9403 10.9 92.5936 11.26C93.2603 11.62 93.7803 12.1333 94.1536 12.8C94.5403 12.1867 95.0669 11.6867 95.7336 11.3C96.4003 10.9133 97.1269 10.72 97.9136 10.72ZM115.365 16.24C115.365 16.56 115.345 16.8933 115.305 17.24H107.565C107.619 17.9333 107.839 18.4667 108.225 18.84C108.625 19.2 109.112 19.38 109.685 19.38C110.539 19.38 111.132 19.02 111.465 18.3H115.105C114.919 19.0333 114.579 19.6933 114.085 20.28C113.605 20.8667 112.999 21.3267 112.265 21.66C111.532 21.9933 110.712 22.16 109.805 22.16C108.712 22.16 107.739 21.9267 106.885 21.46C106.032 20.9933 105.365 20.3267 104.885 19.46C104.405 18.5933 104.165 17.58 104.165 16.42C104.165 15.26 104.399 14.2467 104.865 13.38C105.345 12.5133 106.012 11.8467 106.865 11.38C107.719 10.9133 108.699 10.68 109.805 10.68C110.885 10.68 111.845 10.9067 112.685 11.36C113.525 11.8133 114.179 12.46 114.645 13.3C115.125 14.14 115.365 15.12 115.365 16.24ZM111.865 15.34C111.865 14.7533 111.665 14.2867 111.265 13.94C110.865 13.5933 110.365 13.42 109.765 13.42C109.192 13.42 108.705 13.5867 108.305 13.92C107.919 14.2533 107.679 14.7267 107.585 15.34H111.865Z" fill="white"/>
<path d="M0.292893 14.2929C-0.0976295 14.6834 -0.0976296 15.3166 0.292892 15.7071L6.65685 22.0711C7.04738 22.4616 7.68054 22.4616 8.07107 22.0711C8.46159 21.6805 8.46159 21.0474 8.07107 20.6569L2.41422 15L8.07107 9.34314C8.46159 8.95262 8.46159 8.31945 8.07107 7.92893C7.68054 7.5384 7.04738 7.5384 6.65685 7.92893L0.292893 14.2929ZM53 14L1 14L1 16L53 16L53 14Z" fill="white"/>
<path d="M137 16C137.552 16 138 15.5523 138 15C138 14.4477 137.552 14 137 14V16ZM117 16H137V14H117V16Z" fill="white"/>
</svg>
