<svg width="20" height="20" viewBox="0 0 20 20" fill="none" xmlns="http://www.w3.org/2000/svg">
<path d="M14.6644 1.22266C15.1061 1.22266 15.4642 1.58074 15.4642 2.02246C15.4642 2.46418 15.1061 2.82227 14.6644 2.82227H3.31711C3.13766 2.82227 2.99219 2.96774 2.99219 3.14719V14.4944C2.99219 14.9362 2.63411 15.2943 2.19238 15.2943C1.75066 15.2943 1.39258 14.9362 1.39258 14.4944V3.14719C1.39258 2.0843 2.25422 1.22266 3.31711 1.22266H14.6644Z" fill="black" fill-opacity="0.7"/>
<path fill-rule="evenodd" clip-rule="evenodd" d="M6.51634 4.42188C5.45345 4.42188 4.5918 5.28353 4.5918 6.34642V16.0941C4.5918 17.157 5.45345 18.0186 6.51634 18.0186H16.264C17.3269 18.0186 18.1885 17.157 18.1885 16.0941V6.34642C18.1885 5.28353 17.3269 4.42188 16.264 4.42188H6.51634ZM6.19142 6.34642C6.19142 6.16697 6.33689 6.0215 6.51634 6.0215H16.264C16.4434 6.0215 16.5889 6.16697 16.5889 6.34642V16.0941C16.5889 16.2735 16.4434 16.419 16.264 16.419H6.51634C6.33689 16.419 6.19142 16.2735 6.19142 16.0941V6.34642Z" fill="black" fill-opacity="0.7"/>
</svg>
