<svg width="27" height="27" viewBox="0 0 27 27" fill="none" xmlns="http://www.w3.org/2000/svg">
<circle cx="13.5" cy="13.5" r="12.5" stroke="#00FC90" stroke-width="2"/>
<path d="M12.1889 21V11.1818H14.5028V21H12.1889ZM13.3523 9.78835C12.9858 9.78835 12.6705 9.6669 12.4062 9.42401C12.142 9.17685 12.0099 8.88068 12.0099 8.53551C12.0099 8.18608 12.142 7.88991 12.4062 7.64702C12.6705 7.39986 12.9858 7.27628 13.3523 7.27628C13.723 7.27628 14.0384 7.39986 14.2983 7.64702C14.5625 7.88991 14.6946 8.18608 14.6946 8.53551C14.6946 8.88068 14.5625 9.17685 14.2983 9.42401C14.0384 9.6669 13.723 9.78835 13.3523 9.78835Z" fill="#00FC90"/>
</svg>
