<svg width="48" height="49" viewBox="0 0 48 49" fill="none" xmlns="http://www.w3.org/2000/svg">
<g clip-path="url(#clip0_1281_6110)">
<path fill-rule="evenodd" clip-rule="evenodd" d="M1.15321 5.81213C0.0273438 7.97951 0.0273438 10.827 0.0273438 16.5219V32.3219C0.0273438 38.0168 0.0273438 40.8642 1.15321 43.0316C2.10196 44.8581 3.59117 46.3473 5.4176 47.296C7.58498 48.4219 10.4324 48.4219 16.1273 48.4219H31.9273C37.6222 48.4219 40.4697 48.4219 42.6371 47.296C44.4635 46.3473 45.9527 44.8581 46.9015 43.0316C48.0273 40.8642 48.0273 38.0168 48.0273 32.3219V16.5219C48.0273 10.827 48.0273 7.97951 46.9015 5.81213C45.9527 3.9857 44.4635 2.4965 42.6371 1.54774C40.4697 0.421875 37.6222 0.421875 31.9273 0.421875H16.1273C10.4324 0.421875 7.58498 0.421875 5.4176 1.54774C3.59117 2.4965 2.10196 3.9857 1.15321 5.81213ZM16.8038 7.0728C18.6656 6.98807 19.2604 6.96735 24.0007 6.96735H23.9952C28.7369 6.96735 29.3296 6.98807 31.1914 7.0728C33.0495 7.15789 34.3185 7.45207 35.4312 7.88371C36.5803 8.32916 37.5512 8.92553 38.522 9.89644C39.4929 10.8666 40.0893 11.8404 40.5365 12.9884C40.9656 14.0983 41.2601 15.3666 41.3474 17.2248C41.431 19.0866 41.4529 19.6815 41.4529 24.4219C41.4529 29.1623 41.431 29.7557 41.3474 31.6175C41.2601 33.475 40.9656 34.7437 40.5365 35.8539C40.0893 37.0015 39.4929 37.9753 38.522 38.9455C37.5523 39.9164 36.5799 40.5143 35.4323 40.9601C34.3218 41.3917 33.052 41.6859 31.1939 41.771C29.3321 41.8557 28.7391 41.8764 23.9985 41.8764C19.2586 41.8764 18.6641 41.8557 16.8023 41.771C14.9446 41.6859 13.6759 41.3917 12.5654 40.9601C11.4181 40.5143 10.4444 39.9164 9.47456 38.9455C8.50405 37.9753 7.9077 37.0015 7.46153 35.8535C7.03027 34.7437 6.7361 33.4753 6.65065 31.6172C6.56629 29.7553 6.5452 29.1623 6.5452 24.4219C6.5452 19.6815 6.56701 19.0863 6.65028 17.2244C6.73392 15.367 7.02845 14.0983 7.46117 12.9881C7.90843 11.8404 8.50477 10.8666 9.47565 9.89644C10.4458 8.92589 11.4196 8.32953 12.5676 7.88371C13.6773 7.45207 14.9457 7.15789 16.8038 7.0728ZM23.4189 10.1126C23.066 10.1125 22.7389 10.1123 22.4349 10.1128V10.1084C19.1819 10.1121 18.5579 10.1339 16.9478 10.2066C15.246 10.2848 14.3221 10.5684 13.7068 10.8084C12.8923 11.1255 12.3105 11.5037 11.6996 12.1146C11.0887 12.7255 10.7098 13.3073 10.3934 14.1219C10.1545 14.7372 9.87019 15.6608 9.79237 17.3626C9.70874 19.2026 9.69201 19.7524 9.69201 24.4135C9.69201 29.0746 9.70874 29.6273 9.79237 31.4673C9.86982 33.1692 10.1545 34.0928 10.3934 34.7073C10.7105 35.5223 11.0887 36.1026 11.6996 36.7135C12.3105 37.3244 12.8923 37.7026 13.7068 38.019C14.3224 38.2579 15.246 38.5423 16.9478 38.6208C18.7877 38.7044 19.3401 38.7226 24.0007 38.7226C28.6609 38.7226 29.2136 38.7044 31.0535 38.6208C32.7553 38.543 33.6796 38.2593 34.2942 38.0193C35.1091 37.703 35.689 37.3248 36.2999 36.7139C36.9108 36.1033 37.2897 35.5233 37.6061 34.7088C37.845 34.0943 38.1293 33.1706 38.2071 31.4688C38.2908 29.6288 38.309 29.0761 38.309 24.4179C38.309 19.7597 38.2908 19.207 38.2071 17.367C38.1297 15.6652 37.845 14.7415 37.6061 14.127C37.289 13.3124 36.9108 12.7306 36.2999 12.1197C35.6894 11.5088 35.1087 11.1306 34.2942 10.8143C33.6789 10.5753 32.7553 10.291 31.0535 10.2132C29.2132 10.1295 28.6609 10.1128 24.0007 10.1128C23.7992 10.1128 23.6055 10.1127 23.4189 10.1126ZM31.223 15.1048C31.223 13.9481 32.1611 13.011 33.3175 13.011V13.0103C34.4738 13.0103 35.412 13.9484 35.412 15.1048C35.412 16.2612 34.4738 17.1993 33.3175 17.1993C32.1611 17.1993 31.223 16.2612 31.223 15.1048ZM15.0373 24.4219C15.0373 19.4718 19.0504 15.4584 24.0003 15.4583C28.9503 15.4583 32.9626 19.4717 32.9626 24.4219C32.9626 29.3721 28.9507 33.3837 24.0007 33.3837C19.0506 33.3837 15.0373 29.3721 15.0373 24.4219ZM29.8187 24.4219C29.8187 21.2084 27.2137 18.6037 24.0007 18.6037C20.7873 18.6037 18.1827 21.2084 18.1827 24.4219C18.1827 27.635 20.7873 30.2401 24.0007 30.2401C27.2137 30.2401 29.8187 27.635 29.8187 24.4219Z" fill="white" fill-opacity="0.7"/>
</g>
<defs>
<clipPath id="clip0_1281_6110">
<rect width="48" height="48" fill="white" transform="translate(0 0.421875)"/>
</clipPath>
</defs>
</svg>
