<svg width="1512" height="751" viewBox="0 0 1512 751" fill="none" xmlns="http://www.w3.org/2000/svg">
<path d="M10 209.279C164.423 209.279 596.413 209.279 596.413 209.279C528.285 336.77 515.114 612.295 737.21 632.84C959.306 653.384 1017.9 486.407 999.274 354.837C980.652 223.266 807.699 26.5664 807.699 26.5664C807.699 26.5664 1386.79 26.5664 1528.5 26.5664" stroke="#0AD97F" stroke-width="4"/>
<path d="M964.5 372.566C961 250.066 750 2.06641 750 2.06641C750 2.06641 1336.55 3.56621 1513 3.56656" stroke="#0AD97F" stroke-width="4"/>
<path d="M730.5 614.566C943.5 635.066 1003.35 478.066 981.566 353.409C959.78 228.752 777.5 13.5664 777.5 13.5664C777.5 13.5664 1340.55 14.5665 1519.5 14.5665" stroke="#0AD97F" stroke-width="4"/>
</svg>
