<svg width="48" height="49" viewBox="0 0 48 49" fill="none" xmlns="http://www.w3.org/2000/svg">
<path fill-rule="evenodd" clip-rule="evenodd" d="M1.12587 5.81213C0 7.97951 0 10.827 0 16.5219V32.3219C0 38.0168 0 40.8642 1.12587 43.0316C2.07462 44.8581 3.56382 46.3473 5.39026 47.296C7.55764 48.4219 10.4051 48.4219 16.1 48.4219H31.9C37.5949 48.4219 40.4424 48.4219 42.6097 47.296C44.4362 46.3473 45.9254 44.8581 46.8741 43.0316C48 40.8642 48 38.0168 48 32.3219V16.5219C48 10.827 48 7.97951 46.8741 5.81213C45.9254 3.9857 44.4362 2.4965 42.6097 1.54774C40.4424 0.421875 37.5949 0.421875 31.9 0.421875H16.1C10.4051 0.421875 7.55764 0.421875 5.39026 1.54774C3.56382 2.4965 2.07462 3.9857 1.12587 5.81213ZM10.7738 15.3285C13.0735 15.3285 14.9378 13.4642 14.9378 11.1645C14.9378 8.86477 13.0735 7.00049 10.7738 7.00049C8.4741 7.00049 6.60982 8.86477 6.60982 11.1645C6.60982 13.4642 8.4741 15.3285 10.7738 15.3285ZM18.7513 18.4058H25.6524V21.5672C25.6524 21.5672 27.5251 17.8218 32.6204 17.8218C37.1657 17.8218 40.931 20.0609 40.931 26.8859V41.2778H33.7795V28.6298C33.7795 24.6037 31.63 24.1609 29.9921 24.1609C26.593 24.1609 26.011 27.0929 26.011 29.155V41.2778H18.7513V18.4058ZM14.4037 18.4058H7.14395V41.2778H14.4037V18.4058Z" fill="white" fill-opacity="0.7"/>
</svg>
