<svg width="170" height="66" viewBox="0 0 170 66" fill="none" xmlns="http://www.w3.org/2000/svg">
  <g clip-path="url(#clip0_1135_1280)">
    <path d="M30.9458 34.8721C28.8934 38.1323 25.8726 40.6131 22.2153 41.9635C20.3365 42.658 18.3805 42.9975 16.4554 42.9975C13.3844 42.9975 10.383 42.1294 7.85602 40.4356C-3.05808 33.1204 -0.415392 19.3736 2.86385 12.1972C3.14163 11.5915 3.86692 11.3407 4.46104 11.6455L6.88768 12.8917L9.39534 14.1727C9.93931 14.4543 10.1785 15.1064 9.93931 15.6697C9.34905 17.0586 8.34598 19.7632 7.97562 22.7958C7.35063 27.935 8.73949 31.5694 12.2309 33.9075C13.2726 34.6059 14.4955 35.0148 15.7879 35.119C19.0402 36.0566 23.8819 36.4077 30.9458 34.8721Z" fill="white"/>
    <path d="M33.1657 29.9305C32.6642 31.7169 31.9273 33.3759 30.986 34.8729C23.9221 36.4085 19.0804 36.0574 15.8281 35.1199C17.0434 35.2163 18.3126 35.0427 19.5395 34.5913C22.4869 33.5071 24.6937 31.034 25.6003 27.8085C27.9922 19.2818 21.8774 11.793 17.8265 6.83901C17.3211 6.22169 16.8582 5.65067 16.4415 5.11824C16.0326 4.59738 16.1406 3.84116 16.6807 3.45148L21.1598 0.22214C21.6652 -0.144392 22.3712 -0.0479366 22.757 0.442059C23.0965 0.870323 23.49 1.34874 23.9105 1.8696C28.3664 7.32129 36.661 17.4723 33.1657 29.9305Z" fill="white"/>
  </g>
  <path d="M56.868 25.208C55.4813 25.208 54.1987 24.9827 53.02 24.532C51.8587 24.064 50.8447 23.414 49.978 22.582C49.1287 21.7327 48.4613 20.7447 47.976 19.618C47.4907 18.4913 47.248 17.252 47.248 15.9C47.248 14.548 47.4907 13.3087 47.976 12.182C48.4613 11.0553 49.1373 10.076 50.004 9.244C50.8707 8.39467 51.8847 7.74467 53.046 7.294C54.2247 6.826 55.5073 6.592 56.894 6.592C58.298 6.592 59.5893 6.83467 60.768 7.32C61.964 7.788 62.978 8.49 63.81 9.426L62.12 11.064C61.4267 10.336 60.6467 9.79867 59.78 9.452C58.9133 9.088 57.986 8.906 56.998 8.906C55.9753 8.906 55.022 9.07933 54.138 9.426C53.2713 9.77267 52.5173 10.258 51.876 10.882C51.2347 11.506 50.732 12.2513 50.368 13.118C50.0213 13.9673 49.848 14.8947 49.848 15.9C49.848 16.9053 50.0213 17.8413 50.368 18.708C50.732 19.5573 51.2347 20.294 51.876 20.918C52.5173 21.542 53.2713 22.0273 54.138 22.374C55.022 22.7207 55.9753 22.894 56.998 22.894C57.986 22.894 58.9133 22.7207 59.78 22.374C60.6467 22.01 61.4267 21.4553 62.12 20.71L63.81 22.348C62.978 23.284 61.964 23.9947 60.768 24.48C59.5893 24.9653 58.2893 25.208 56.868 25.208ZM76.7491 25V22.088L76.6191 21.542V16.576C76.6191 15.5187 76.3071 14.704 75.6831 14.132C75.0764 13.5427 74.1577 13.248 72.9271 13.248C72.1124 13.248 71.3151 13.3867 70.5351 13.664C69.7551 13.924 69.0964 14.2793 68.5591 14.73L67.5191 12.858C68.2297 12.286 69.0791 11.8527 70.0671 11.558C71.0724 11.246 72.1211 11.09 73.2131 11.09C75.1024 11.09 76.5584 11.5493 77.5811 12.468C78.6037 13.3867 79.1151 14.7907 79.1151 16.68V25H76.7491ZM72.2251 25.156C71.2024 25.156 70.3011 24.9827 69.5211 24.636C68.7584 24.2893 68.1691 23.8127 67.7531 23.206C67.3371 22.582 67.1291 21.88 67.1291 21.1C67.1291 20.3547 67.3024 19.6787 67.6491 19.072C68.0131 18.4653 68.5937 17.98 69.3911 17.616C70.2057 17.252 71.2977 17.07 72.6671 17.07H77.0351V18.864H72.7711C71.5231 18.864 70.6824 19.072 70.2491 19.488C69.8157 19.904 69.5991 20.4067 69.5991 20.996C69.5991 21.672 69.8677 22.218 70.4051 22.634C70.9424 23.0327 71.6877 23.232 72.6411 23.232C73.5771 23.232 74.3917 23.024 75.0851 22.608C75.7957 22.192 76.3071 21.5853 76.6191 20.788L77.1131 22.504C76.7837 23.3187 76.2031 23.9687 75.3711 24.454C74.5391 24.922 73.4904 25.156 72.2251 25.156ZM83.7341 25V11.22H86.1261V14.964L85.8921 14.028C86.2735 13.0747 86.9148 12.3467 87.8161 11.844C88.7175 11.3413 89.8268 11.09 91.1441 11.09V13.508C91.0401 13.4907 90.9361 13.482 90.8321 13.482C90.7455 13.482 90.6588 13.482 90.5721 13.482C89.2375 13.482 88.1801 13.8807 87.4001 14.678C86.6201 15.4753 86.2301 16.628 86.2301 18.136V25H83.7341ZM101.526 25.156C100.348 25.156 99.2818 24.896 98.3285 24.376C97.3925 23.8387 96.6471 23.05 96.0925 22.01C95.5551 20.97 95.2865 19.67 95.2865 18.11C95.2865 16.55 95.5638 15.25 96.1185 14.21C96.6905 13.17 97.4445 12.39 98.3805 11.87C99.3338 11.35 100.382 11.09 101.526 11.09C102.878 11.09 104.074 11.3847 105.114 11.974C106.154 12.5633 106.978 13.3867 107.584 14.444C108.191 15.484 108.494 16.706 108.494 18.11C108.494 19.514 108.191 20.7447 107.584 21.802C106.978 22.8593 106.154 23.6827 105.114 24.272C104.074 24.8613 102.878 25.156 101.526 25.156ZM94.2205 25V5.708H96.7165V14.886L96.4565 18.084L96.6125 21.282V25H94.2205ZM101.318 22.972C102.202 22.972 102.991 22.7727 103.684 22.374C104.395 21.9753 104.95 21.412 105.348 20.684C105.764 19.9387 105.972 19.0807 105.972 18.11C105.972 17.122 105.764 16.2727 105.348 15.562C104.95 14.834 104.395 14.2707 103.684 13.872C102.991 13.4733 102.202 13.274 101.318 13.274C100.452 13.274 99.6631 13.4733 98.9525 13.872C98.2591 14.2707 97.7045 14.834 97.2885 15.562C96.8898 16.2727 96.6905 17.122 96.6905 18.11C96.6905 19.0807 96.8898 19.9387 97.2885 20.684C97.7045 21.412 98.2591 21.9753 98.9525 22.374C99.6631 22.7727 100.452 22.972 101.318 22.972ZM117.845 25.156C116.458 25.156 115.228 24.8527 114.153 24.246C113.078 23.6393 112.229 22.8073 111.605 21.75C110.981 20.6753 110.669 19.462 110.669 18.11C110.669 16.7407 110.981 15.5273 111.605 14.47C112.229 13.4127 113.078 12.5893 114.153 12C115.228 11.3933 116.458 11.09 117.845 11.09C119.214 11.09 120.436 11.3933 121.511 12C122.603 12.5893 123.452 13.4127 124.059 14.47C124.683 15.51 124.995 16.7233 124.995 18.11C124.995 19.4793 124.683 20.6927 124.059 21.75C123.452 22.8073 122.603 23.6393 121.511 24.246C120.436 24.8527 119.214 25.156 117.845 25.156ZM117.845 22.972C118.729 22.972 119.518 22.7727 120.211 22.374C120.922 21.9753 121.476 21.412 121.875 20.684C122.274 19.9387 122.473 19.0807 122.473 18.11C122.473 17.122 122.274 16.2727 121.875 15.562C121.476 14.834 120.922 14.2707 120.211 13.872C119.518 13.4733 118.729 13.274 117.845 13.274C116.961 13.274 116.172 13.4733 115.479 13.872C114.786 14.2707 114.231 14.834 113.815 15.562C113.399 16.2727 113.191 17.122 113.191 18.11C113.191 19.0807 113.399 19.9387 113.815 20.684C114.231 21.412 114.786 21.9753 115.479 22.374C116.172 22.7727 116.961 22.972 117.845 22.972ZM135.805 11.09C136.932 11.09 137.92 11.3067 138.769 11.74C139.636 12.1733 140.312 12.832 140.797 13.716C141.282 14.6 141.525 15.718 141.525 17.07V25H139.029V17.356C139.029 16.0213 138.7 15.016 138.041 14.34C137.4 13.664 136.49 13.326 135.311 13.326C134.427 13.326 133.656 13.4993 132.997 13.846C132.338 14.1927 131.827 14.704 131.463 15.38C131.116 16.056 130.943 16.8967 130.943 17.902V25H128.447V11.22H130.839V14.938L130.449 13.95C130.9 13.0487 131.593 12.3467 132.529 11.844C133.465 11.3413 134.557 11.09 135.805 11.09Z" fill="white"/>
  <path d="M51.096 37.6754H60.456V39.8854H51.096V37.6754ZM51.33 45.7614H61.938V48.0234H48.73V29.8234H61.574V32.0854H51.33V45.7614ZM71.3002 48.1794C69.9656 48.1794 68.7696 47.8848 67.7122 47.2954C66.6722 46.7061 65.8489 45.8828 65.2422 44.8254C64.6356 43.7681 64.3322 42.5374 64.3322 41.1334C64.3322 39.7294 64.6356 38.5074 65.2422 37.4674C65.8489 36.4101 66.6722 35.5868 67.7122 34.9974C68.7696 34.4081 69.9656 34.1134 71.3002 34.1134C72.4962 34.1134 73.5622 34.3734 74.4982 34.8934C75.4342 35.4134 76.1709 36.1934 76.7082 37.2334C77.2629 38.2734 77.5402 39.5734 77.5402 41.1334C77.5402 42.6934 77.2542 43.9934 76.6822 45.0334C76.1276 46.0734 75.3822 46.8621 74.4462 47.3994C73.5102 47.9194 72.4616 48.1794 71.3002 48.1794ZM71.5082 45.9954C72.3749 45.9954 73.1549 45.7961 73.8482 45.3974C74.5589 44.9988 75.1136 44.4354 75.5122 43.7074C75.9282 42.9621 76.1362 42.1041 76.1362 41.1334C76.1362 40.1454 75.9282 39.2961 75.5122 38.5854C75.1136 37.8574 74.5589 37.2941 73.8482 36.8954C73.1549 36.4968 72.3749 36.2974 71.5082 36.2974C70.6242 36.2974 69.8356 36.4968 69.1422 36.8954C68.4489 37.2941 67.8942 37.8574 67.4782 38.5854C67.0622 39.2961 66.8542 40.1454 66.8542 41.1334C66.8542 42.1041 67.0622 42.9621 67.4782 43.7074C67.8942 44.4354 68.4489 44.9988 69.1422 45.3974C69.8356 45.7961 70.6242 45.9954 71.5082 45.9954ZM76.1102 53.0674V44.3574L76.3702 41.1594L76.2142 37.9614V34.2434H78.6062V53.0674H76.1102ZM89.1269 48.1794C87.9482 48.1794 86.9082 47.9628 86.0069 47.5294C85.1229 47.0961 84.4296 46.4374 83.9269 45.5534C83.4416 44.6521 83.1989 43.5254 83.1989 42.1734V34.2434H85.6949V41.8874C85.6949 43.2394 86.0156 44.2534 86.6569 44.9294C87.3156 45.6054 88.2342 45.9434 89.4129 45.9434C90.2796 45.9434 91.0336 45.7701 91.6749 45.4234C92.3162 45.0594 92.8102 44.5394 93.1569 43.8634C93.5036 43.1701 93.6769 42.3381 93.6769 41.3674V34.2434H96.1729V48.0234H93.8069V44.3054L94.1969 45.2934C93.7462 46.2121 93.0702 46.9228 92.1689 47.4254C91.2676 47.9281 90.2536 48.1794 89.1269 48.1794ZM109.999 48.0234V45.1114L109.869 44.5654V39.5994C109.869 38.5421 109.557 37.7274 108.933 37.1554C108.326 36.5661 107.407 36.2714 106.177 36.2714C105.362 36.2714 104.565 36.4101 103.785 36.6874C103.005 36.9474 102.346 37.3028 101.809 37.7534L100.769 35.8814C101.479 35.3094 102.329 34.8761 103.317 34.5814C104.322 34.2694 105.371 34.1134 106.463 34.1134C108.352 34.1134 109.808 34.5728 110.831 35.4914C111.853 36.4101 112.365 37.8141 112.365 39.7034V48.0234H109.999ZM105.475 48.1794C104.452 48.1794 103.551 48.0061 102.771 47.6594C102.008 47.3128 101.419 46.8361 101.003 46.2294C100.587 45.6054 100.379 44.9034 100.379 44.1234C100.379 43.3781 100.552 42.7021 100.899 42.0954C101.263 41.4888 101.843 41.0034 102.641 40.6394C103.455 40.2754 104.547 40.0934 105.917 40.0934H110.285V41.8874H106.021C104.773 41.8874 103.932 42.0954 103.499 42.5114C103.065 42.9274 102.849 43.4301 102.849 44.0194C102.849 44.6954 103.117 45.2414 103.655 45.6574C104.192 46.0561 104.937 46.2554 105.891 46.2554C106.827 46.2554 107.641 46.0474 108.335 45.6314C109.045 45.2154 109.557 44.6088 109.869 43.8114L110.363 45.5274C110.033 46.3421 109.453 46.9921 108.621 47.4774C107.789 47.9454 106.74 48.1794 105.475 48.1794ZM117.504 48.0234V28.7314H120V48.0234H117.504ZM125.805 48.0234V34.2434H128.301V48.0234H125.805ZM127.053 31.5914C126.568 31.5914 126.161 31.4354 125.831 31.1234C125.519 30.8114 125.363 30.4301 125.363 29.9794C125.363 29.5114 125.519 29.1214 125.831 28.8094C126.161 28.4974 126.568 28.3414 127.053 28.3414C127.539 28.3414 127.937 28.4974 128.249 28.8094C128.579 29.1041 128.743 29.4768 128.743 29.9274C128.743 30.3954 128.587 30.7941 128.275 31.1234C127.963 31.4354 127.556 31.5914 127.053 31.5914ZM140.399 48.1794C139.012 48.1794 137.938 47.8068 137.175 47.0614C136.412 46.3161 136.031 45.2501 136.031 43.8634V31.2274H138.527V43.7594C138.527 44.5048 138.709 45.0768 139.073 45.4754C139.454 45.8741 139.992 46.0734 140.685 46.0734C141.465 46.0734 142.115 45.8568 142.635 45.4234L143.415 47.2174C143.034 47.5468 142.574 47.7894 142.037 47.9454C141.517 48.1014 140.971 48.1794 140.399 48.1794ZM133.691 36.2974V34.2434H142.479V36.2974H133.691ZM147.291 53.2234C146.632 53.2234 145.991 53.1108 145.367 52.8854C144.743 52.6774 144.205 52.3654 143.755 51.9494L144.821 50.0774C145.167 50.4068 145.549 50.6581 145.965 50.8314C146.381 51.0048 146.823 51.0914 147.291 51.0914C147.897 51.0914 148.4 50.9354 148.799 50.6234C149.197 50.3114 149.57 49.7568 149.917 48.9594L150.775 47.0614L151.035 46.7494L156.443 34.2434H158.887L152.205 49.4014C151.806 50.3721 151.355 51.1348 150.853 51.6894C150.367 52.2441 149.83 52.6341 149.241 52.8594C148.651 53.1021 148.001 53.2234 147.291 53.2234ZM150.567 48.4654L144.275 34.2434H146.875L152.231 46.5154L150.567 48.4654Z" fill="white"/>
  <defs>
    <clipPath id="clip0_1135_1280">
      <rect width="34" height="43" fill="white"/>
    </clipPath>
  </defs>
</svg>
