<svg width="48" height="48" viewBox="0 0 48 48" fill="none" xmlns="http://www.w3.org/2000/svg">
<rect width="48" height="48" rx="7.27273" fill="black"/>
<g clip-path="url(#clip0_1386_2624)">
<path d="M23.4427 44.3656C20.4247 44.3656 17.4755 43.5245 14.9916 41.8855C4.47292 34.9424 6.77414 22.0072 9.90601 14.9647C9.99037 14.7739 10.1135 14.6022 10.2679 14.4601C10.4223 14.318 10.6046 14.2086 10.8036 14.1386C11.0025 14.0686 11.214 14.0395 11.4248 14.0531C11.6357 14.0666 11.8414 14.1226 12.0295 14.2175L16.1802 16.3133C16.5237 16.4863 16.7889 16.7797 16.9235 17.1357C17.0581 17.4917 17.0524 17.8844 16.9074 18.2365C16.3216 19.6504 15.4482 22.0987 15.1112 24.8207C14.4947 29.792 15.8619 33.3089 19.2895 35.571C21.2804 36.8854 23.9493 37.1321 26.4299 36.2314C29.3258 35.1795 31.4969 32.7877 32.3866 29.6679C34.7379 21.42 28.7271 14.1762 24.75 9.38302C24.3573 8.90562 23.9905 8.4672 23.6511 8.04788C23.5211 7.88676 23.4256 7.70131 23.3705 7.50276C23.3154 7.30421 23.3018 7.09671 23.3306 6.89284C23.3594 6.68898 23.4299 6.493 23.5379 6.31679C23.646 6.14058 23.7892 5.98781 23.959 5.86775L27.7171 3.19826C28.038 2.96984 28.4357 2.8716 28.8281 2.92388C29.2205 2.97616 29.5774 3.17496 29.8252 3.47914C30.1007 3.8173 30.4045 4.18331 30.7277 4.57318C35.1063 9.84929 43.2519 19.6703 39.8187 31.7231C38.2528 37.2133 34.346 41.459 29.1012 43.3638C27.2898 44.0237 25.3741 44.3629 23.4427 44.3656Z" fill="white"/>
</g>
<defs>
<clipPath id="clip0_1386_2624">
<rect width="33.4545" height="41.4545" fill="white" transform="translate(7.27246 2.91016)"/>
</clipPath>
</defs>
</svg>
