<svg width="134" height="57" viewBox="0 0 134 57" fill="none" xmlns="http://www.w3.org/2000/svg">
<g clip-path="url(#clip0_1290_7762)">
<path d="M22.2336 57.0012C18.0839 57.0012 14.0287 55.8448 10.6135 53.591C-3.84979 44.0444 -0.685613 26.2584 3.6207 16.575C3.7367 16.3127 3.90606 16.0765 4.11832 15.8812C4.33057 15.6858 4.58124 15.5354 4.85483 15.4391C5.12842 15.3429 5.41914 15.3028 5.70905 15.3215C5.99897 15.3402 6.28192 15.4171 6.54046 15.5476L12.2478 18.4294C12.72 18.6672 13.0847 19.0706 13.2698 19.5601C13.4549 20.0496 13.447 20.5896 13.2477 21.0737C12.4422 23.0178 11.2412 26.3842 10.7779 30.1269C9.93018 36.9626 11.81 41.7983 16.523 44.9087C19.2605 46.716 22.9302 47.0552 26.341 45.8167C30.3229 44.3704 33.3082 41.0817 34.5315 36.7919C37.7645 25.451 29.4997 15.4907 24.0312 8.90019C23.4913 8.24376 22.9869 7.64094 22.5202 7.06437C22.3414 6.84284 22.2101 6.58783 22.1343 6.31483C22.0586 6.04183 22.0399 5.75651 22.0795 5.4762C22.1191 5.19588 22.2161 4.92641 22.3646 4.68412C22.5131 4.44183 22.7101 4.23177 22.9435 4.06669L28.1109 0.396143C28.5521 0.0820633 29.0991 -0.0530082 29.6386 0.0188747C30.1781 0.0907576 30.6689 0.364099 31.0095 0.782346C31.3884 1.24732 31.8061 1.75058 32.2505 2.28666C38.2712 9.54131 49.4714 23.0452 44.7506 39.6178C42.5975 47.1668 37.2257 53.0046 30.0141 55.6238C27.5234 56.5312 24.8893 56.9975 22.2336 57.0012Z" fill="white"/>
<path d="M65.3133 26.3114C64.1089 26.3114 63.0453 26.0926 62.1224 25.655C61.1995 25.2174 60.4814 24.5099 59.9681 23.5325C59.4497 22.5566 59.1904 21.2653 59.1904 19.6585V19.3062C59.1904 18.1699 59.3475 17.1936 59.6615 16.3774C59.9364 15.6205 60.3837 14.9356 60.9692 14.3753C61.5259 13.8576 62.1905 13.4655 62.9168 13.2266C63.6877 12.9746 64.4955 12.8493 65.3077 12.8557C66.0377 12.8514 66.7654 12.9385 67.4731 13.115C68.1134 13.2721 68.7169 13.5492 69.2507 13.9311C69.7685 14.3135 70.19 14.808 70.4828 15.3764C70.7976 15.9701 70.9861 16.6933 71.0483 17.5459H67.5286C67.4153 16.8661 67.1516 16.3778 66.7376 16.081C66.322 15.7842 65.8198 15.6283 65.3066 15.6368C64.8324 15.6293 64.3659 15.7545 63.9611 15.9978C63.5656 16.2385 63.2549 16.6247 63.029 17.1564C62.8031 17.6881 62.692 18.4047 62.6957 19.3062V19.6957C62.6829 20.3075 62.7528 20.9182 62.9035 21.5118C63.0095 21.9421 63.2047 22.3463 63.4767 22.6989C63.6977 22.9771 63.9856 23.1967 64.3144 23.3378C64.631 23.4685 64.9711 23.5348 65.3144 23.5325C65.9543 23.5325 66.4657 23.3812 66.8487 23.0785C67.2316 22.7758 67.4609 22.2908 67.5364 21.6234H71.0561C71.005 22.4892 70.8261 23.2215 70.5195 23.8203C70.2358 24.3916 69.8166 24.8873 69.2974 25.2655C68.7631 25.6427 68.1593 25.9136 67.5197 26.0631C66.7973 26.2345 66.0563 26.3179 65.3133 26.3114Z" fill="white"/>
<path d="M75.7608 26.3107C75.124 26.3281 74.4929 26.1878 73.9254 25.9026C73.4362 25.6491 73.0338 25.259 72.7688 24.7812C72.5021 24.2946 72.3659 23.7489 72.3733 23.1959C72.3733 22.22 72.6774 21.4724 73.2855 20.9531C73.8936 20.4338 74.8131 20.1745 76.0441 20.1753H78.8672V19.7672C78.8672 19.1742 78.7261 18.7665 78.4439 18.544C78.1617 18.3252 77.7684 18.2103 77.2674 18.2103C76.7896 18.2103 76.4382 18.2833 76.213 18.4291C75.9908 18.5714 75.8619 18.8022 75.8364 19.1239H72.9377C72.9687 18.549 73.1682 17.9953 73.5121 17.5298C73.8945 17.0316 74.4088 16.6467 74.9987 16.4172C75.6453 16.1459 76.433 16.0098 77.3618 16.0091C78.1503 15.9932 78.9348 16.1242 79.6738 16.3953C80.3164 16.6354 80.8623 17.0747 81.2293 17.6469C81.5996 18.2216 81.7848 18.9908 81.7848 19.9543V23.5646C81.7848 24.0847 81.7974 24.5387 81.8225 24.9267C81.847 25.3162 81.8848 25.6925 81.9336 26.0667H79.1661C79.1539 25.8567 79.1383 25.6718 79.1194 25.5109C79.0985 25.314 79.0888 25.116 79.0905 24.918C78.757 25.3392 78.3288 25.6785 77.8395 25.9092C77.307 26.1768 76.6141 26.3107 75.7608 26.3107ZM76.703 24.29C77.0851 24.2974 77.4642 24.2227 77.814 24.0712C78.1369 23.9282 78.4081 23.692 78.5917 23.3939C78.7818 23.084 78.8796 22.7276 78.8739 22.3655V21.9575H76.6152C76.1886 21.9575 75.8716 22.0669 75.6642 22.2857C75.4634 22.4914 75.3522 22.7662 75.3542 23.0515C75.3387 23.3787 75.4494 23.6996 75.6642 23.9497C75.8679 24.1773 76.2141 24.2907 76.703 24.29Z" fill="white"/>
<path d="M83.5723 26.0696V16.2461H86.2454V17.5809C86.3731 17.3192 86.5452 17.081 86.7542 16.8763C87.0036 16.6209 87.2966 16.4106 87.6197 16.2549C87.9712 16.0854 88.3582 15.9996 88.7496 16.0043C88.9197 16.0014 89.0896 16.0138 89.2574 16.0415C89.3829 16.0667 89.4951 16.0919 89.5907 16.1159V18.5841C89.4525 18.5227 89.3068 18.4789 89.1574 18.4539C88.8975 18.4012 88.6327 18.3762 88.3674 18.3795C87.9888 18.3642 87.6134 18.4541 87.2842 18.6388C87.0085 18.8052 86.7916 19.0512 86.6631 19.3434C86.5276 19.66 86.4603 20.0009 86.4654 20.3444V26.0718L83.5723 26.0696Z" fill="white"/>
<path d="M96.6936 26.311C95.927 26.311 95.2804 26.1472 94.7537 25.8197C94.287 25.5489 93.8882 25.178 93.5872 24.7344V26.0692H90.9141V13.0938H93.8127V17.4896C94.1345 17.0218 94.5719 16.6423 95.0837 16.3869C95.5818 16.1353 96.1338 16.0047 96.6936 16.0061C98.1009 16.0061 99.1674 16.4142 99.8933 17.2304C100.619 18.0465 100.983 19.2635 100.984 20.8812V21.2521C100.984 22.3651 100.809 23.295 100.458 24.0419C100.149 24.7428 99.6301 25.3343 98.9712 25.7377C98.3275 26.1192 97.5683 26.3102 96.6936 26.311ZM95.997 23.9566C96.2763 23.9605 96.5526 23.8996 96.8036 23.7787C97.0545 23.6578 97.273 23.4803 97.4413 23.2608C97.8235 22.7976 98.0146 22.1273 98.0146 21.2499V20.8812C98.0146 20.0293 97.8294 19.3962 97.4591 18.9819C97.2779 18.7783 97.0531 18.6169 96.8008 18.5094C96.5485 18.4019 96.275 18.3511 96.0003 18.3605C95.6178 18.3559 95.2399 18.4418 94.8982 18.611C94.5652 18.7787 94.2903 19.0399 94.1082 19.3616C93.902 19.7431 93.8012 20.1713 93.816 20.6033V21.5311C93.8038 21.9834 93.9041 22.4319 94.1082 22.8374C94.2855 23.1837 94.5596 23.4729 94.8982 23.671C95.2315 23.8622 95.6112 23.9609 95.997 23.9566Z" fill="white"/>
<path d="M107.196 26.3138C106.314 26.3247 105.44 26.1407 104.64 25.7755C103.866 25.4151 103.222 24.8298 102.796 24.0983C102.337 23.3376 102.108 22.3894 102.109 21.2538V20.884C102.109 19.8213 102.338 18.9286 102.796 18.2058C103.239 17.4962 103.879 16.9266 104.64 16.5647C105.441 16.1979 106.313 16.0078 107.196 16.0078C108.078 16.0078 108.951 16.1979 109.751 16.5647C110.509 16.9285 111.146 17.4978 111.586 18.2058C112.044 18.9286 112.273 19.8213 112.274 20.884V21.2549C112.274 22.3796 112.045 23.3157 111.586 24.0633C111.153 24.7885 110.516 25.3745 109.751 25.7503C108.956 26.1326 108.08 26.3256 107.196 26.3138ZM107.196 23.9408C107.604 23.9524 108.006 23.8376 108.344 23.6125C108.673 23.3784 108.921 23.0525 109.059 22.6771C109.231 22.2206 109.314 21.7363 109.304 21.2494V20.884C109.314 20.4395 109.23 19.9978 109.059 19.5864C108.909 19.2343 108.661 18.9309 108.344 18.7112C108 18.4989 107.602 18.3863 107.196 18.3863C106.79 18.3863 106.392 18.4989 106.048 18.7112C105.73 18.9306 105.482 19.234 105.332 19.5864C105.161 19.9979 105.078 20.4395 105.088 20.884V21.2549C105.075 21.7508 105.158 22.2446 105.332 22.7099C105.47 23.0806 105.72 23.4008 106.048 23.6279C106.389 23.8449 106.79 23.9541 107.196 23.9408Z" fill="white"/>
<path d="M113.781 26.0692V16.2457H116.454V17.5804C116.735 17.1073 117.142 16.7194 117.631 16.459C118.164 16.1563 118.876 16.0046 119.767 16.0039C120.96 16.0039 121.86 16.3193 122.468 16.9502C123.076 17.5812 123.381 18.4892 123.382 19.6744V26.0692H120.483V20.3232C120.483 19.6806 120.342 19.1956 120.06 18.8681C119.777 18.5406 119.316 18.3769 118.675 18.3769C118.278 18.3604 117.883 18.4536 117.536 18.646C117.256 18.8125 117.031 19.0573 116.892 19.3495C116.75 19.6544 116.679 19.9867 116.684 20.3221V26.0681L113.781 26.0692Z" fill="white"/>
<path d="M59.667 42.4793V29.5039H69.2662V32.0618H63.0545V34.6011H68.7018V37.008H63.0545V39.9193H69.2662V42.4771L59.667 42.4793Z" fill="white"/>
<path d="M77.7556 46.1866V41.2327C77.434 41.7006 76.9971 42.0804 76.4857 42.3366C75.9873 42.5872 75.4355 42.7173 74.8759 42.7163C74.0807 42.7345 73.2958 42.5357 72.6083 42.1419C71.945 41.7403 71.4226 41.148 71.1117 40.445C70.7606 39.6981 70.5847 38.7686 70.584 37.6563V37.2941C70.584 36.2307 70.7536 35.3376 71.0928 34.6148C71.3967 33.9307 71.9098 33.357 72.5605 32.9737C73.2004 32.6025 73.9722 32.4172 74.8759 32.418C75.6417 32.418 76.288 32.5817 76.8146 32.9092C77.2816 33.1796 77.6807 33.5502 77.9823 33.9934V32.6587H80.6554V46.1899L77.7556 46.1866ZM75.5725 40.3662C75.9625 40.3727 76.3468 40.2736 76.6835 40.0796C77.0167 39.8782 77.2861 39.5891 77.4612 39.2448C77.665 38.8393 77.7649 38.3908 77.7523 37.9385V37.0108C77.7675 36.5789 77.6671 36.1507 77.4612 35.769C77.2815 35.4498 77.0113 35.189 76.6835 35.0185C76.3392 34.8477 75.9579 34.7618 75.5725 34.768C75.3002 34.7609 75.0296 34.8129 74.78 34.9203C74.5304 35.0277 74.3078 35.1878 74.1281 35.3894C73.7519 35.8044 73.5634 36.4379 73.5626 37.2898V37.6606C73.5626 38.5505 73.7541 39.2237 74.137 39.6803C74.3062 39.8961 74.5238 40.0703 74.7729 40.1894C75.0219 40.3084 75.2956 40.3689 75.5725 40.3662Z" fill="white"/>
<path d="M85.9631 42.7176C84.8209 42.7176 83.9491 42.3963 83.3477 41.7538C82.7463 41.1112 82.4448 40.1349 82.4434 38.825V32.6523H85.3398V38.3852C85.3398 39.0285 85.475 39.5168 85.7453 39.8501C86.0157 40.1834 86.4515 40.3501 87.053 40.3501C87.4251 40.3638 87.7936 40.274 88.1162 40.0908C88.3936 39.9236 88.6135 39.6781 88.7473 39.3862C88.8889 39.0712 88.9594 38.7296 88.9539 38.3852V32.6523H91.8537V42.4769H89.1806V41.1422C88.8889 41.6128 88.4766 41.9996 87.9851 42.2636C87.4507 42.5655 86.7841 42.7176 85.9631 42.7176Z" fill="white"/>
<path d="M96.843 42.7181C96.1275 42.7181 95.5157 42.5821 95.0076 42.3101C94.518 42.0566 94.1153 41.6665 93.8499 41.1887C93.5835 40.7019 93.4474 40.1563 93.4544 39.6034C93.4544 38.6275 93.7588 37.8799 94.3676 37.3606C94.9765 36.8413 95.8956 36.582 97.1252 36.5827H99.9494V36.1746C99.9494 35.5817 99.8079 35.1739 99.525 34.9515C99.242 34.729 98.8502 34.6196 98.3495 34.6233C97.8718 34.6233 97.5203 34.6962 97.2951 34.8421C97.07 34.9879 96.9444 35.2195 96.9185 35.5368H94.0199C94.051 34.9621 94.2501 34.4086 94.5932 33.9428C94.976 33.4448 95.4907 33.0602 96.0808 32.8312C96.7259 32.5584 97.5133 32.4224 98.4428 32.4231C99.2327 32.4074 100.018 32.5396 100.758 32.8126C101.401 33.0523 101.947 33.4912 102.314 34.0631C102.684 34.6378 102.869 35.4073 102.869 36.3715V39.9819C102.869 40.502 102.882 40.9564 102.907 41.3451C102.931 41.7335 102.969 42.1109 103.018 42.4851H100.252C100.238 42.275 100.223 42.0891 100.204 41.9282C100.183 41.7312 100.174 41.5333 100.176 41.3353C99.8424 41.7571 99.4137 42.0968 98.9239 42.3276C98.3899 42.5872 97.6962 42.7174 96.843 42.7181ZM97.784 40.6974C98.1661 40.7048 98.5452 40.6301 98.895 40.4786C99.2156 40.3347 99.4844 40.0986 99.6661 39.8014C99.857 39.4917 99.9552 39.1352 99.9494 38.773V38.3649H97.6896C97.2629 38.3649 96.9463 38.4743 96.7396 38.6931C96.5384 38.8987 96.4268 39.1735 96.4286 39.459C96.4131 39.7867 96.5242 40.108 96.7396 40.3583C96.9463 40.5844 97.294 40.6974 97.7829 40.6974H97.784Z" fill="white"/>
<path d="M108.227 42.5898C107.423 42.5898 106.765 42.4943 106.251 42.3032C105.999 42.211 105.768 42.07 105.572 41.8885C105.377 41.7069 105.22 41.4886 105.112 41.2463C104.867 40.7358 104.745 39.9911 104.745 39.0123V29.5039H107.644V38.5845C107.644 39.1892 107.729 39.6122 107.898 39.8536C108.068 40.095 108.422 40.2157 108.961 40.2157C109.11 40.2157 109.235 40.2125 109.338 40.2059C109.438 40.2004 109.539 40.1906 109.639 40.1785V42.5329C109.514 42.545 109.378 42.5537 109.235 42.5603L108.764 42.5789C108.599 42.5866 108.42 42.5898 108.227 42.5898Z" fill="white"/>
<path d="M112.599 31.7277C112.059 31.7277 111.641 31.5887 111.346 31.3108C111.063 31.0262 110.904 30.6434 110.904 30.2447C110.904 29.846 111.063 29.4632 111.346 29.1785C111.643 28.9007 112.06 28.7617 112.599 28.7617C113.137 28.7617 113.554 28.9007 113.85 29.1785C114.133 29.4632 114.292 29.846 114.292 30.2447C114.292 30.6434 114.133 31.0262 113.85 31.3108C113.556 31.5887 113.139 31.7277 112.599 31.7277ZM111.154 42.4789V32.6543H114.053V42.4789H111.154Z" fill="white"/>
<path d="M120.353 42.589C119.524 42.589 118.847 42.4796 118.32 42.2607C117.808 42.0587 117.392 41.6749 117.153 41.1853C116.902 40.6849 116.776 40.0023 116.777 39.1372V34.9798H115.555V32.6539H116.777V30.4297H119.675V32.6539H121.953V34.9952H119.675V38.6832C119.675 39.2397 119.767 39.6354 119.949 39.8702C120.131 40.1051 120.485 40.2225 121.012 40.2225C121.389 40.2225 121.766 40.2039 122.141 40.1667V42.4839C121.903 42.52 121.652 42.5485 121.389 42.5671C121.125 42.5857 120.781 42.589 120.353 42.589Z" fill="white"/>
<path d="M125.812 46.4242C125.623 46.4245 125.434 46.4062 125.248 46.3695V43.9966C125.433 44.0335 125.623 44.0522 125.812 44.0524C126.03 44.0611 126.246 44.0063 126.433 43.8948C126.621 43.763 126.774 43.588 126.878 43.385C127.039 43.0855 127.181 42.776 127.302 42.4583L123.08 32.6523H126.281L128.765 39.1959L131.118 32.6523H134.003L130.201 42.4769C129.894 43.2562 129.536 44.0146 129.127 44.7471C128.838 45.2852 128.396 45.7294 127.856 46.026C127.347 46.2922 126.665 46.425 125.812 46.4242Z" fill="white"/>
</g>
<defs>
<clipPath id="clip0_1290_7762">
<rect width="134" height="57" fill="white"/>
</clipPath>
</defs>
</svg>
