<svg width="40" height="40" viewBox="0 0 40 40" fill="none" xmlns="http://www.w3.org/2000/svg">
<path d="M17.2897 14.1538L17.8315 12.7877C17.9229 12.5564 18.0837 12.3574 18.2927 12.2169C18.5019 12.0763 18.7495 12.0007 19.0034 12H20.0366C20.2904 12.0007 20.5381 12.0763 20.7472 12.2169C20.9563 12.3574 21.1171 12.5564 21.2085 12.7877L21.7503 14.1538L23.5899 15.1877L25.0768 14.9662C25.3244 14.9333 25.5764 14.9731 25.8009 15.0805C26.0251 15.1879 26.2118 15.358 26.3369 15.5692L26.8409 16.4308C26.9701 16.6454 27.0297 16.8931 27.0116 17.1414C26.9936 17.3897 26.899 17.6269 26.7401 17.8215L25.8203 18.9662V21.0338L26.7653 22.1785C26.9242 22.3731 27.0188 22.6103 27.0369 22.8586C27.0549 23.1069 26.9953 23.3546 26.8661 23.5692L26.3621 24.4308C26.237 24.642 26.0503 24.8121 25.8261 24.9195C25.6016 25.0268 25.3496 25.0667 25.102 25.0338L23.6151 24.8123L21.7755 25.8462L21.2337 27.2123C21.1423 27.4436 20.9815 27.6426 20.7724 27.7831C20.5633 27.9237 20.3156 27.9993 20.0618 28H19.0034C18.7495 27.9993 18.5019 27.9237 18.2927 27.7831C18.0837 27.6426 17.9229 27.4436 17.8315 27.2123L17.2897 25.8462L15.45 24.8123L13.9631 25.0338C13.7155 25.0667 13.4635 25.0268 13.2392 24.9195C13.0148 24.8121 12.8282 24.642 12.703 24.4308L12.199 23.5692C12.0699 23.3546 12.0104 23.1069 12.0283 22.8586C12.0463 22.6103 12.141 22.3731 12.2998 22.1785L13.2197 21.0338V18.9662L12.2746 17.8215C12.1158 17.6269 12.0211 17.3897 12.0031 17.1414C11.9852 16.8931 12.0447 16.6454 12.1738 16.4308L12.6778 15.5692C12.803 15.358 12.9896 15.1879 13.214 15.0805C13.4383 14.9731 13.6903 14.9333 13.9379 14.9662L15.4248 15.1877L17.2897 14.1538ZM16.9999 20C16.9999 20.4868 17.1477 20.9628 17.4246 21.3676C17.7015 21.7724 18.0951 22.0879 18.5556 22.2742C19.0161 22.4605 19.5228 22.5092 20.0116 22.4142C20.5005 22.3193 20.9495 22.0848 21.302 21.7406C21.6544 21.3963 21.8945 20.9577 21.9917 20.4802C22.0889 20.0027 22.039 19.5078 21.8483 19.058C21.6575 18.6082 21.3345 18.2238 20.9201 17.9533C20.5057 17.6828 20.0184 17.5385 19.52 17.5385C18.8516 17.5385 18.2106 17.7978 17.738 18.2594C17.2654 18.7211 16.9999 19.3472 16.9999 20Z" stroke="black" stroke-width="1.2032" stroke-linecap="round" stroke-linejoin="round"/>
</svg>
