<svg width="17" height="17" viewBox="0 0 17 17" fill="none" xmlns="http://www.w3.org/2000/svg">
<path d="M3.58165 13.5179C3.05118 13.5179 2.62115 13.0879 2.62115 12.5574V3.72081C2.62115 3.19034 3.05118 2.76031 3.58165 2.76031H12.4182C12.9487 2.76031 13.3787 3.19034 13.3787 3.72081V6.60231C13.3787 7.02668 13.7227 7.3707 14.1471 7.3707C14.5715 7.3707 14.9155 7.02668 14.9155 6.60231V3.72081C14.9155 2.34159 13.7974 1.22352 12.4182 1.22352H3.58165C2.20243 1.22352 1.08435 2.34159 1.08435 3.72081V12.5574C1.08435 13.9366 2.20243 15.0547 3.58165 15.0547H6.46314C6.88751 15.0547 7.23154 14.7107 7.23154 14.2863C7.23154 13.8619 6.88751 13.5179 6.46314 13.5179H3.58165ZM9.53673 13.5179C9.11236 13.5179 8.76833 13.8619 8.76833 14.2863C8.76833 14.7107 9.11236 15.0547 9.53673 15.0547H14.1471C14.5715 15.0547 14.9155 14.7107 14.9155 14.2863V9.6759C14.9155 9.25152 14.5715 8.9075 14.1471 8.9075C13.7227 8.9075 13.3787 9.25152 13.3787 9.6759V12.4312L10.0801 9.13256C9.77999 8.83248 9.29347 8.83248 8.99339 9.13256C8.69331 9.43264 8.69331 9.91916 8.99339 10.2192L12.292 13.5179H9.53673Z" fill="#242424"/>
</svg>
