<svg width="20" height="20" viewBox="0 0 20 20" fill="none" xmlns="http://www.w3.org/2000/svg">
<g clip-path="url(#clip0_1359_1639)">
<path fill-rule="evenodd" clip-rule="evenodd" d="M0.833374 9.9987C0.833374 4.93596 4.9373 0.832031 10 0.832031C15.0628 0.832031 19.1667 4.93596 19.1667 9.9987C19.1667 15.0614 15.0628 19.1654 10 19.1654C4.9373 19.1654 0.833374 15.0614 0.833374 9.9987ZM10 2.4987C5.85778 2.4987 2.50004 5.85643 2.50004 9.9987C2.50004 14.141 5.85778 17.4987 10 17.4987C14.1423 17.4987 17.5 14.141 17.5 9.9987C17.5 5.85643 14.1423 2.4987 10 2.4987Z" fill="#1D1D1D"/>
<path fill-rule="evenodd" clip-rule="evenodd" d="M7.93765 5.4363C8.48463 4.88932 9.22649 4.58203 10 4.58203C10.7736 4.58203 11.5155 4.88932 12.0624 5.4363C12.6094 5.98328 12.9167 6.72515 12.9167 7.4987C12.9167 8.27225 12.6094 9.01411 12.0624 9.56109C11.5155 10.1081 10.7736 10.4154 10 10.4154C9.22649 10.4154 8.48463 10.1081 7.93765 9.56109C7.39066 9.01411 7.08337 8.27225 7.08337 7.4987C7.08337 6.72515 7.39066 5.98328 7.93765 5.4363ZM10 6.2487C9.66852 6.2487 9.35058 6.38039 9.11616 6.61481C8.88174 6.84923 8.75004 7.16718 8.75004 7.4987C8.75004 7.83022 8.88174 8.14816 9.11616 8.38258C9.35058 8.617 9.66852 8.7487 10 8.7487C10.3316 8.7487 10.6495 8.617 10.8839 8.38258C11.1183 8.14816 11.25 7.83022 11.25 7.4987C11.25 7.16718 11.1183 6.84923 10.8839 6.61481C10.6495 6.38039 10.3316 6.2487 10 6.2487Z" fill="#1D1D1D"/>
<path fill-rule="evenodd" clip-rule="evenodd" d="M8.33316 12.9154C6.56757 12.9154 5.1218 14.289 5.00718 16.0253C4.97687 16.4845 4.58 16.8322 4.12077 16.8019C3.66153 16.7716 3.31382 16.3747 3.34414 15.9155C3.51618 13.3092 5.68375 11.2487 8.33316 11.2487H11.6665C14.3123 11.2487 16.4779 13.3037 16.655 15.905C16.6862 16.3642 16.3393 16.7618 15.8802 16.793C15.421 16.8243 15.0234 16.4774 14.9922 16.0182C14.8742 14.2854 13.4298 12.9154 11.6665 12.9154H8.33316Z" fill="#1D1D1D"/>
</g>
<defs>
<clipPath id="clip0_1359_1639">
<rect width="20" height="20" fill="white"/>
</clipPath>
</defs>
</svg>
