<svg width="12" height="12" viewBox="0 0 12 12" fill="none" xmlns="http://www.w3.org/2000/svg">
<path d="M10.2929 0.292893C10.6834 -0.0976311 11.3166 -0.0976311 11.7071 0.292893C12.0976 0.683418 12.0976 1.31658 11.7071 1.70711L10.2929 0.292893ZM1 12C0.447714 12 -7.61451e-07 11.5523 -3.39982e-07 11L-2.13542e-07 2C-5.50717e-07 1.44772 0.447715 1 0.999999 1C1.55228 1 2 1.44772 2 2L2 10L10 10C10.5523 10 11 10.4477 11 11C11 11.5523 10.5523 12 10 12L1 12ZM11.7071 1.70711L1.70711 11.7071L0.292893 10.2929L10.2929 0.292893L11.7071 1.70711Z" fill="white" fill-opacity="0.8"/>
</svg>
