<svg width="16" height="16" viewBox="0 0 16 16" fill="none" xmlns="http://www.w3.org/2000/svg">
<g clip-path="url(#clip0_1386_2621)">
<path fill-rule="evenodd" clip-rule="evenodd" d="M2.81451 2.81585C4.14087 1.48951 5.97511 0.667969 7.99996 0.667969C10.0248 0.667969 11.8591 1.48952 13.1854 2.81585C14.5117 4.14221 15.3333 5.97645 15.3333 8.0013C15.3333 10.0261 14.5117 11.8604 13.1854 13.1867C11.8591 14.5131 10.0248 15.3346 7.99996 15.3346C5.97511 15.3346 4.14086 14.5131 2.81451 13.1867C1.48817 11.8604 0.666626 10.0261 0.666626 8.0013C0.666626 5.97646 1.48818 4.1422 2.81451 2.81585ZM11.8047 6.47271C12.065 6.21236 12.065 5.79025 11.8047 5.5299C11.5443 5.26955 11.1222 5.26955 10.8619 5.5299L7.33329 9.05849L5.8047 7.5299C5.54435 7.26955 5.12224 7.26955 4.86189 7.5299C4.60154 7.79025 4.60154 8.21236 4.86189 8.47271L6.86189 10.4727C7.12224 10.7331 7.54435 10.7331 7.8047 10.4727L11.8047 6.47271Z" fill="#66DD8C"/>
</g>
<defs>
<clipPath id="clip0_1386_2621">
<rect width="16" height="16" fill="white"/>
</clipPath>
</defs>
</svg>
