<svg width="1512" height="282" viewBox="0 0 1512 282" fill="none" xmlns="http://www.w3.org/2000/svg">
  <path d="M13.0133 36.7467C5.76 36.7467 0.746667 31.84 0.746667 24.8C0.746667 17.76 5.76 12.8533 13.0133 12.8533C17.92 12.8533 22.96 15.04 24.0533 21.6267H18.96C18 18.7467 15.7867 17.4667 13.0133 17.4667C9.04 17.4667 6 20.48 6 24.8C6 29.0933 9.04 32.1333 13.0133 32.1333C15.7867 32.1333 18 30.8533 18.96 27.9467H24.0533C22.96 34.56 17.9733 36.7467 13.0133 36.7467ZM43.0596 36L41.6729 32.24H30.6329L29.2463 36H23.7529L32.4196 13.6H39.8862L48.5796 36H43.0596ZM32.1263 28.2133H40.1796L36.6596 18.64H35.6463L32.1263 28.2133ZM50.0529 36V13.6H56.2129L66.6129 28.6667H67.1196V13.6H72.3196V36H66.2663L55.7329 20.9333H55.2529V36H50.0529ZM86.4508 36.7467C79.1975 36.7467 74.1842 31.84 74.1842 24.8C74.1842 17.76 79.1975 12.8533 86.4508 12.8533C91.3575 12.8533 96.3975 15.04 97.4908 21.6267H92.3975C91.4375 18.7467 89.2242 17.4667 86.4508 17.4667C82.4775 17.4667 79.4375 20.48 79.4375 24.8C79.4375 29.0933 82.4775 32.1333 86.4508 32.1333C89.2242 32.1333 91.4375 30.8533 92.3975 27.9467H97.4908C96.3975 34.56 91.4108 36.7467 86.4508 36.7467ZM99.3967 36V13.6H118.25V17.9467H104.703V22.8533H117.77V26.6933H104.703V31.6267H118.25V36H99.3967ZM120.553 36V13.6H125.86V31.5467H138.766V36H120.553ZM140.834 36V13.6H146.141V31.5467H159.048V36H140.834ZM179.341 36L177.954 32.24H166.914L165.528 36H160.034L168.701 13.6H176.167L184.861 36H179.341ZM168.408 28.2133H176.461L172.941 18.64H171.928L168.408 28.2133ZM203.776 13.6V18.0533H195.376V36H190.043V18.0533H181.67V13.6H203.776ZM205.897 36V13.6H211.203V36H205.897ZM225.384 36.7467C218.077 36.7467 213.09 31.84 213.09 24.8C213.09 17.76 218.077 12.8533 225.384 12.8533C232.717 12.8533 237.704 17.76 237.704 24.8C237.704 31.84 232.717 36.7467 225.384 36.7467ZM225.384 32.1333C229.384 32.1333 232.424 29.2 232.424 24.8C232.424 20.4 229.384 17.4667 225.384 17.4667C221.41 17.4667 218.344 20.4 218.344 24.8C218.344 29.2 221.41 32.1333 225.384 32.1333ZM239.584 36V13.6H245.744L256.144 28.6667H256.651V13.6H261.851V36H255.798L245.264 20.9333H244.784V36H239.584Z" fill="white" fill-opacity="0.6"/>
  <path d="M198.013 155.747C190.76 155.747 185.747 150.84 185.747 143.8C185.747 136.76 190.76 131.853 198.013 131.853C202.92 131.853 207.96 134.04 209.053 140.627H203.96C203 137.747 200.787 136.467 198.013 136.467C194.04 136.467 191 139.48 191 143.8C191 148.093 194.04 151.133 198.013 151.133C200.787 151.133 203 149.853 203.96 146.947H209.053C207.96 153.56 202.973 155.747 198.013 155.747ZM228.06 155L226.673 151.24H215.633L214.246 155H208.753L217.42 132.6H224.886L233.58 155H228.06ZM217.126 147.213H225.18L221.66 137.64H220.646L217.126 147.213ZM235.053 155V132.6H241.213L251.613 147.667H252.12V132.6H257.32V155H251.266L240.733 139.933H240.253V155H235.053ZM271.451 155.747C264.198 155.747 259.184 150.84 259.184 143.8C259.184 136.76 264.198 131.853 271.451 131.853C276.358 131.853 281.398 134.04 282.491 140.627H277.398C276.438 137.747 274.224 136.467 271.451 136.467C267.477 136.467 264.438 139.48 264.438 143.8C264.438 148.093 267.477 151.133 271.451 151.133C274.224 151.133 276.438 149.853 277.398 146.947H282.491C281.398 153.56 276.411 155.747 271.451 155.747ZM284.397 155V132.6H303.25V136.947H289.703V141.853H302.77V145.693H289.703V150.627H303.25V155H284.397ZM305.553 155V132.6H310.86V150.547H323.766V155H305.553ZM325.834 155V132.6H331.141V150.547H344.048V155H325.834ZM364.341 155L362.954 151.24H351.914L350.528 155H345.034L353.701 132.6H361.167L369.861 155H364.341ZM353.408 147.213H361.461L357.941 137.64H356.928L353.408 147.213ZM388.776 132.6V137.053H380.376V155H375.043V137.053H366.67V132.6H388.776ZM390.897 155V132.6H396.203V155H390.897ZM410.384 155.747C403.077 155.747 398.09 150.84 398.09 143.8C398.09 136.76 403.077 131.853 410.384 131.853C417.717 131.853 422.704 136.76 422.704 143.8C422.704 150.84 417.717 155.747 410.384 155.747ZM410.384 151.133C414.384 151.133 417.424 148.2 417.424 143.8C417.424 139.4 414.384 136.467 410.384 136.467C406.41 136.467 403.344 139.4 403.344 143.8C403.344 148.2 406.41 151.133 410.384 151.133ZM424.584 155V132.6H430.744L441.144 147.667H441.651V132.6H446.851V155H440.798L430.264 139.933H429.784V155H424.584Z" fill="white" fill-opacity="0.6"/>
  <path d="M318.44 12.6C327.133 12.6 330.44 17.4267 330.44 23.8C330.44 30.1733 327.133 35 318.44 35H308.147V12.6H318.44ZM318.413 30.52C322.76 30.52 325.107 28.12 325.107 23.8C325.107 19.48 322.76 17.08 318.413 17.08H313.507L313.453 30.52H318.413ZM332.428 35V12.6H351.281V16.9467H337.735V21.8533H350.801V25.6933H337.735V30.6267H351.281V35H332.428ZM368.906 25.3906C368.771 25.401 368.427 25.651 367.875 26.1406C366.823 27.0573 366.156 27.5156 365.875 27.5156H354.594C354.719 27.5052 355.057 27.2604 355.609 26.7812C356.172 26.2917 356.599 25.9375 356.891 25.7188C357.193 25.5 357.438 25.3906 357.625 25.3906H368.906ZM372.022 35V12.6H390.875V16.9467H377.328V21.8533H390.395V25.6933H377.328V30.6267H390.875V35H372.022ZM393.178 35V12.6H399.978L405.525 28.3067H405.925L411.471 12.6H418.271V35H413.178V21.5067H412.725L407.791 35H403.658L398.725 21.5067H398.271V35H393.178ZM420.553 35V12.6H425.86V35H420.553ZM438.013 35.7467C431.187 35.7467 427.587 33.32 427.613 28.0667H432.413C432.6 30.1733 434.333 31.5067 438.013 31.5333C441.48 31.5333 443.373 30.36 443.373 28.6C443.373 27.0533 442.12 26.28 439.453 25.8267L436.68 25.3467C432.44 24.6 428.227 23.48 428.227 18.6C428.227 14.36 431.8 11.8533 438.067 11.8533C443.907 11.8533 447.96 13.9067 448.013 19.4533H443.24C442.893 17.4267 441.32 16.0667 437.96 16.0667C434.92 16.0667 433.32 17.1067 433.32 18.84C433.32 20.2 434.413 21.0533 436.707 21.48L439.133 21.9067C443.4 22.68 448.653 23.4 448.653 28.76C448.653 33.2133 445 35.7467 438.013 35.7467ZM460.482 35.7467C453.655 35.7467 450.055 33.32 450.082 28.0667H454.882C455.069 30.1733 456.802 31.5067 460.482 31.5333C463.949 31.5333 465.842 30.36 465.842 28.6C465.842 27.0533 464.589 26.28 461.922 25.8267L459.149 25.3467C454.909 24.6 450.695 23.48 450.695 18.6C450.695 14.36 454.269 11.8533 460.535 11.8533C466.375 11.8533 470.429 13.9067 470.482 19.4533H465.709C465.362 17.4267 463.789 16.0667 460.429 16.0667C457.389 16.0667 455.789 17.1067 455.789 18.84C455.789 20.2 456.882 21.0533 459.175 21.48L461.602 21.9067C465.869 22.68 471.122 23.4 471.122 28.76C471.122 33.2133 467.469 35.7467 460.482 35.7467ZM472.928 35V12.6H478.235V35H472.928ZM492.415 35.7467C485.108 35.7467 480.122 30.84 480.122 23.8C480.122 16.76 485.108 11.8533 492.415 11.8533C499.748 11.8533 504.735 16.76 504.735 23.8C504.735 30.84 499.748 35.7467 492.415 35.7467ZM492.415 31.1333C496.415 31.1333 499.455 28.2 499.455 23.8C499.455 19.4 496.415 16.4667 492.415 16.4667C488.442 16.4667 485.375 19.4 485.375 23.8C485.375 28.2 488.442 31.1333 492.415 31.1333ZM506.615 35V12.6H512.775L523.175 27.6667H523.682V12.6H528.882V35H522.829L512.295 19.9333H511.815V35H506.615Z" fill="white" fill-opacity="0.6"/>
  <path d="M503.44 131.6C512.133 131.6 515.44 136.427 515.44 142.8C515.44 149.173 512.133 154 503.44 154H493.147V131.6H503.44ZM503.413 149.52C507.76 149.52 510.107 147.12 510.107 142.8C510.107 138.48 507.76 136.08 503.413 136.08H498.507L498.453 149.52H503.413ZM517.428 154V131.6H536.281V135.947H522.735V140.853H535.801V144.693H522.735V149.627H536.281V154H517.428ZM553.906 144.391C553.771 144.401 553.427 144.651 552.875 145.141C551.823 146.057 551.156 146.516 550.875 146.516H539.594C539.719 146.505 540.057 146.26 540.609 145.781C541.172 145.292 541.599 144.938 541.891 144.719C542.193 144.5 542.438 144.391 542.625 144.391H553.906ZM557.022 154V131.6H575.875V135.947H562.328V140.853H575.395V144.693H562.328V149.627H575.875V154H557.022ZM578.178 154V131.6H584.978L590.525 147.307H590.925L596.471 131.6H603.271V154H598.178V140.507H597.725L592.791 154H588.658L583.725 140.507H583.271V154H578.178ZM605.553 154V131.6H610.86V154H605.553ZM623.013 154.747C616.187 154.747 612.587 152.32 612.613 147.067H617.413C617.6 149.173 619.333 150.507 623.013 150.533C626.48 150.533 628.373 149.36 628.373 147.6C628.373 146.053 627.12 145.28 624.453 144.827L621.68 144.347C617.44 143.6 613.227 142.48 613.227 137.6C613.227 133.36 616.8 130.853 623.067 130.853C628.907 130.853 632.96 132.907 633.013 138.453H628.24C627.893 136.427 626.32 135.067 622.96 135.067C619.92 135.067 618.32 136.107 618.32 137.84C618.32 139.2 619.413 140.053 621.707 140.48L624.133 140.907C628.4 141.68 633.653 142.4 633.653 147.76C633.653 152.213 630 154.747 623.013 154.747ZM645.482 154.747C638.655 154.747 635.055 152.32 635.082 147.067H639.882C640.069 149.173 641.802 150.507 645.482 150.533C648.949 150.533 650.842 149.36 650.842 147.6C650.842 146.053 649.589 145.28 646.922 144.827L644.149 144.347C639.909 143.6 635.695 142.48 635.695 137.6C635.695 133.36 639.269 130.853 645.535 130.853C651.375 130.853 655.429 132.907 655.482 138.453H650.709C650.362 136.427 648.789 135.067 645.429 135.067C642.389 135.067 640.789 136.107 640.789 137.84C640.789 139.2 641.882 140.053 644.175 140.48L646.602 140.907C650.869 141.68 656.122 142.4 656.122 147.76C656.122 152.213 652.469 154.747 645.482 154.747ZM657.928 154V131.6H663.235V154H657.928ZM677.415 154.747C670.108 154.747 665.122 149.84 665.122 142.8C665.122 135.76 670.108 130.853 677.415 130.853C684.748 130.853 689.735 135.76 689.735 142.8C689.735 149.84 684.748 154.747 677.415 154.747ZM677.415 150.133C681.415 150.133 684.455 147.2 684.455 142.8C684.455 138.4 681.415 135.467 677.415 135.467C673.442 135.467 670.375 138.4 670.375 142.8C670.375 147.2 673.442 150.133 677.415 150.133ZM691.615 154V131.6H697.775L708.175 146.667H708.682V131.6H713.882V154H707.829L697.295 138.933H696.815V154H691.615Z" fill="white" fill-opacity="0.6"/>
  <path d="M846.44 72.6C855.133 72.6 858.44 77.4267 858.44 83.8C858.44 90.1733 855.133 95 846.44 95H836.147V72.6H846.44ZM846.413 90.52C850.76 90.52 853.107 88.12 853.107 83.8C853.107 79.48 850.76 77.08 846.413 77.08H841.507L841.453 90.52H846.413ZM860.428 95V72.6H879.281V76.9467H865.735V81.8533H878.801V85.6933H865.735V90.6267H879.281V95H860.428ZM896.906 85.3906C896.771 85.401 896.427 85.651 895.875 86.1406C894.823 87.0573 894.156 87.5156 893.875 87.5156H882.594C882.719 87.5052 883.057 87.2604 883.609 86.7812C884.172 86.2917 884.599 85.9375 884.891 85.7188C885.193 85.5 885.438 85.3906 885.625 85.3906H896.906ZM900.022 95V72.6H918.875V76.9467H905.328V81.8533H918.395V85.6933H905.328V90.6267H918.875V95H900.022ZM921.178 95V72.6H927.978L933.525 88.3067H933.925L939.471 72.6H946.271V95H941.178V81.5067H940.725L935.791 95H931.658L926.725 81.5067H926.271V95H921.178ZM948.553 95V72.6H953.86V95H948.553ZM966.013 95.7467C959.187 95.7467 955.587 93.32 955.613 88.0667H960.413C960.6 90.1733 962.333 91.5067 966.013 91.5333C969.48 91.5333 971.373 90.36 971.373 88.6C971.373 87.0533 970.12 86.28 967.453 85.8267L964.68 85.3467C960.44 84.6 956.227 83.48 956.227 78.6C956.227 74.36 959.8 71.8533 966.067 71.8533C971.907 71.8533 975.96 73.9067 976.013 79.4533H971.24C970.893 77.4267 969.32 76.0667 965.96 76.0667C962.92 76.0667 961.32 77.1067 961.32 78.84C961.32 80.2 962.413 81.0533 964.707 81.48L967.133 81.9067C971.4 82.68 976.653 83.4 976.653 88.76C976.653 93.2133 973 95.7467 966.013 95.7467ZM988.482 95.7467C981.655 95.7467 978.055 93.32 978.082 88.0667H982.882C983.069 90.1733 984.802 91.5067 988.482 91.5333C991.949 91.5333 993.842 90.36 993.842 88.6C993.842 87.0533 992.589 86.28 989.922 85.8267L987.149 85.3467C982.909 84.6 978.695 83.48 978.695 78.6C978.695 74.36 982.269 71.8533 988.535 71.8533C994.375 71.8533 998.429 73.9067 998.482 79.4533H993.709C993.362 77.4267 991.789 76.0667 988.429 76.0667C985.389 76.0667 983.789 77.1067 983.789 78.84C983.789 80.2 984.882 81.0533 987.175 81.48L989.602 81.9067C993.869 82.68 999.122 83.4 999.122 88.76C999.122 93.2133 995.469 95.7467 988.482 95.7467ZM1000.93 95V72.6H1006.23V95H1000.93ZM1020.41 95.7467C1013.11 95.7467 1008.12 90.84 1008.12 83.8C1008.12 76.76 1013.11 71.8533 1020.41 71.8533C1027.75 71.8533 1032.74 76.76 1032.74 83.8C1032.74 90.84 1027.75 95.7467 1020.41 95.7467ZM1020.41 91.1333C1024.42 91.1333 1027.45 88.2 1027.45 83.8C1027.45 79.4 1024.42 76.4667 1020.41 76.4667C1016.44 76.4667 1013.38 79.4 1013.38 83.8C1013.38 88.2 1016.44 91.1333 1020.41 91.1333ZM1034.62 95V72.6H1040.78L1051.18 87.6667H1051.68V72.6H1056.88V95H1050.83L1040.3 79.9333H1039.82V95H1034.62Z" fill="white" fill-opacity="0.6"/>
  <path d="M585.013 36.7467C577.76 36.7467 572.747 31.84 572.747 24.8C572.747 17.76 577.76 12.8533 585.013 12.8533C589.92 12.8533 594.96 15.04 596.053 21.6267H590.96C590 18.7467 587.787 17.4667 585.013 17.4667C581.04 17.4667 578 20.48 578 24.8C578 29.0933 581.04 32.1333 585.013 32.1333C587.787 32.1333 590 30.8533 590.96 27.9467H596.053C594.96 34.56 589.973 36.7467 585.013 36.7467ZM615.06 36L613.673 32.24H602.633L601.246 36H595.753L604.42 13.6H611.886L620.58 36H615.06ZM604.126 28.2133H612.18L608.66 18.64H607.646L604.126 28.2133ZM643.546 36H638.266L634.586 29.3333H627.36V36H622.053V13.6H633.813C639.813 13.6 642.986 16.4 642.986 21.6267C642.986 24.7467 641.466 27.0133 639.173 28.2667L643.546 36ZM627.36 18.0533V25.2533H633.52C636.213 25.2533 637.706 24.0267 637.706 21.6533C637.706 19.28 636.213 18.0533 633.52 18.0533H627.36ZM662.694 24.24C665.121 25.2267 666.507 26.9867 666.507 29.68C666.507 33.3867 663.921 36 657.307 36H645.334V13.6H657.361C663.761 13.6 665.788 16.24 665.788 19.3333C665.788 21.7067 664.614 23.04 662.694 23.8933V24.24ZM656.961 17.76H650.641V22.72H656.961C659.388 22.72 660.694 21.8933 660.694 20.2667C660.694 18.64 659.388 17.76 656.961 17.76ZM657.227 31.84C659.708 31.84 661.121 30.6667 661.121 28.88C661.121 27.0667 659.708 26.08 657.227 26.08H650.641V31.84H657.227ZM680.134 36.7467C672.827 36.7467 667.84 31.84 667.84 24.8C667.84 17.76 672.827 12.8533 680.134 12.8533C687.467 12.8533 692.454 17.76 692.454 24.8C692.454 31.84 687.467 36.7467 680.134 36.7467ZM680.134 32.1333C684.134 32.1333 687.174 29.2 687.174 24.8C687.174 20.4 684.134 17.4667 680.134 17.4667C676.16 17.4667 673.094 20.4 673.094 24.8C673.094 29.2 676.16 32.1333 680.134 32.1333ZM694.334 36V13.6H700.494L710.894 28.6667H711.401V13.6H716.601V36H710.548L700.014 20.9333H699.534V36H694.334ZM725.615 36V13.6H731.775L742.175 28.6667H742.682V13.6H747.882V36H741.829L731.295 20.9333H730.815V36H725.615ZM750.147 36V13.6H769V17.9467H755.453V22.8533H768.52V26.6933H755.453V31.6267H769V36H750.147ZM782.103 36.7467C775.196 36.7467 771.303 33.4933 771.303 26.6667V13.6H776.663V26.5333C776.663 30.1067 778.45 32.2667 782.103 32.2667C785.756 32.2667 787.57 30.1067 787.57 26.5333V13.6H792.903V26.6667C792.903 33.4933 789.01 36.7467 782.103 36.7467ZM817.151 13.6V18.0533H808.751V36H803.418V18.0533H795.045V13.6H817.151ZM840.765 36H835.485L831.805 29.3333H824.578V36H819.272V13.6H831.032C837.032 13.6 840.205 16.4 840.205 21.6267C840.205 24.7467 838.685 27.0133 836.392 28.2667L840.765 36ZM824.578 18.0533V25.2533H830.738C833.432 25.2533 834.925 24.0267 834.925 21.6533C834.925 19.28 833.432 18.0533 830.738 18.0533H824.578ZM860.653 36L859.267 32.24H848.227L846.84 36H841.347L850.013 13.6H857.48L866.173 36H860.653ZM849.72 28.2133H857.773L854.253 18.64H853.24L849.72 28.2133ZM867.647 36V13.6H872.953V31.5467H885.86V36H867.647Z" fill="white" fill-opacity="0.6"/>
  <path d="M770.013 155.747C762.76 155.747 757.747 150.84 757.747 143.8C757.747 136.76 762.76 131.853 770.013 131.853C774.92 131.853 779.96 134.04 781.053 140.627H775.96C775 137.747 772.787 136.467 770.013 136.467C766.04 136.467 763 139.48 763 143.8C763 148.093 766.04 151.133 770.013 151.133C772.787 151.133 775 149.853 775.96 146.947H781.053C779.96 153.56 774.973 155.747 770.013 155.747ZM800.06 155L798.673 151.24H787.633L786.246 155H780.753L789.42 132.6H796.886L805.58 155H800.06ZM789.126 147.213H797.18L793.66 137.64H792.646L789.126 147.213ZM828.546 155H823.266L819.586 148.333H812.36V155H807.053V132.6H818.813C824.813 132.6 827.986 135.4 827.986 140.627C827.986 143.747 826.466 146.013 824.173 147.267L828.546 155ZM812.36 137.053V144.253H818.52C821.213 144.253 822.706 143.027 822.706 140.653C822.706 138.28 821.213 137.053 818.52 137.053H812.36ZM847.694 143.24C850.121 144.227 851.507 145.987 851.507 148.68C851.507 152.387 848.921 155 842.307 155H830.334V132.6H842.361C848.761 132.6 850.788 135.24 850.788 138.333C850.788 140.707 849.614 142.04 847.694 142.893V143.24ZM841.961 136.76H835.641V141.72H841.961C844.388 141.72 845.694 140.893 845.694 139.267C845.694 137.64 844.388 136.76 841.961 136.76ZM842.227 150.84C844.708 150.84 846.121 149.667 846.121 147.88C846.121 146.067 844.708 145.08 842.227 145.08H835.641V150.84H842.227ZM865.134 155.747C857.827 155.747 852.84 150.84 852.84 143.8C852.84 136.76 857.827 131.853 865.134 131.853C872.467 131.853 877.454 136.76 877.454 143.8C877.454 150.84 872.467 155.747 865.134 155.747ZM865.134 151.133C869.134 151.133 872.174 148.2 872.174 143.8C872.174 139.4 869.134 136.467 865.134 136.467C861.16 136.467 858.094 139.4 858.094 143.8C858.094 148.2 861.16 151.133 865.134 151.133ZM879.334 155V132.6H885.494L895.894 147.667H896.401V132.6H901.601V155H895.548L885.014 139.933H884.534V155H879.334ZM910.615 155V132.6H916.775L927.175 147.667H927.682V132.6H932.882V155H926.829L916.295 139.933H915.815V155H910.615ZM935.147 155V132.6H954V136.947H940.453V141.853H953.52V145.693H940.453V150.627H954V155H935.147ZM967.103 155.747C960.196 155.747 956.303 152.493 956.303 145.667V132.6H961.663V145.533C961.663 149.107 963.45 151.267 967.103 151.267C970.756 151.267 972.57 149.107 972.57 145.533V132.6H977.903V145.667C977.903 152.493 974.01 155.747 967.103 155.747ZM1002.15 132.6V137.053H993.751V155H988.418V137.053H980.045V132.6H1002.15ZM1025.77 155H1020.49L1016.81 148.333H1009.58V155H1004.27V132.6H1016.03C1022.03 132.6 1025.2 135.4 1025.2 140.627C1025.2 143.747 1023.69 146.013 1021.39 147.267L1025.77 155ZM1009.58 137.053V144.253H1015.74C1018.43 144.253 1019.93 143.027 1019.93 140.653C1019.93 138.28 1018.43 137.053 1015.74 137.053H1009.58ZM1045.65 155L1044.27 151.24H1033.23L1031.84 155H1026.35L1035.01 132.6H1042.48L1051.17 155H1045.65ZM1034.72 147.213H1042.77L1039.25 137.64H1038.24L1034.72 147.213ZM1052.65 155V132.6H1057.95V150.547H1070.86V155H1052.65Z" fill="white" fill-opacity="0.9"/>
  <path d="M1114.01 96.7467C1106.76 96.7467 1101.75 91.84 1101.75 84.8C1101.75 77.76 1106.76 72.8533 1114.01 72.8533C1118.92 72.8533 1123.96 75.04 1125.05 81.6267H1119.96C1119 78.7467 1116.79 77.4667 1114.01 77.4667C1110.04 77.4667 1107 80.48 1107 84.8C1107 89.0933 1110.04 92.1333 1114.01 92.1333C1116.79 92.1333 1119 90.8533 1119.96 87.9467H1125.05C1123.96 94.56 1118.97 96.7467 1114.01 96.7467ZM1144.06 96L1142.67 92.24H1131.63L1130.25 96H1124.75L1133.42 73.6H1140.89L1149.58 96H1144.06ZM1133.13 88.2133H1141.18L1137.66 78.64H1136.65L1133.13 88.2133ZM1172.55 96H1167.27L1163.59 89.3333H1156.36V96H1151.05V73.6H1162.81C1168.81 73.6 1171.99 76.4 1171.99 81.6267C1171.99 84.7467 1170.47 87.0133 1168.17 88.2667L1172.55 96ZM1156.36 78.0533V85.2533H1162.52C1165.21 85.2533 1166.71 84.0267 1166.71 81.6533C1166.71 79.28 1165.21 78.0533 1162.52 78.0533H1156.36ZM1191.69 84.24C1194.12 85.2267 1195.51 86.9867 1195.51 89.68C1195.51 93.3867 1192.92 96 1186.31 96H1174.33V73.6H1186.36C1192.76 73.6 1194.79 76.24 1194.79 79.3333C1194.79 81.7067 1193.61 83.04 1191.69 83.8933V84.24ZM1185.96 77.76H1179.64V82.72H1185.96C1188.39 82.72 1189.69 81.8933 1189.69 80.2667C1189.69 78.64 1188.39 77.76 1185.96 77.76ZM1186.23 91.84C1188.71 91.84 1190.12 90.6667 1190.12 88.88C1190.12 87.0667 1188.71 86.08 1186.23 86.08H1179.64V91.84H1186.23ZM1209.13 96.7467C1201.83 96.7467 1196.84 91.84 1196.84 84.8C1196.84 77.76 1201.83 72.8533 1209.13 72.8533C1216.47 72.8533 1221.45 77.76 1221.45 84.8C1221.45 91.84 1216.47 96.7467 1209.13 96.7467ZM1209.13 92.1333C1213.13 92.1333 1216.17 89.2 1216.17 84.8C1216.17 80.4 1213.13 77.4667 1209.13 77.4667C1205.16 77.4667 1202.09 80.4 1202.09 84.8C1202.09 89.2 1205.16 92.1333 1209.13 92.1333ZM1223.33 96V73.6H1229.49L1239.89 88.6667H1240.4V73.6H1245.6V96H1239.55L1229.01 80.9333H1228.53V96H1223.33ZM1254.62 96V73.6H1260.78L1271.18 88.6667H1271.68V73.6H1276.88V96H1270.83L1260.3 80.9333H1259.82V96H1254.62ZM1279.15 96V73.6H1298V77.9467H1284.45V82.8533H1297.52V86.6933H1284.45V91.6267H1298V96H1279.15ZM1311.1 96.7467C1304.2 96.7467 1300.3 93.4933 1300.3 86.6667V73.6H1305.66V86.5333C1305.66 90.1067 1307.45 92.2667 1311.1 92.2667C1314.76 92.2667 1316.57 90.1067 1316.57 86.5333V73.6H1321.9V86.6667C1321.9 93.4933 1318.01 96.7467 1311.1 96.7467ZM1346.15 73.6V78.0533H1337.75V96H1332.42V78.0533H1324.04V73.6H1346.15ZM1369.77 96H1364.49L1360.81 89.3333H1353.58V96H1348.27V73.6H1360.03C1366.03 73.6 1369.2 76.4 1369.2 81.6267C1369.2 84.7467 1367.69 87.0133 1365.39 88.2667L1369.77 96ZM1353.58 78.0533V85.2533H1359.74C1362.43 85.2533 1363.93 84.0267 1363.93 81.6533C1363.93 79.28 1362.43 78.0533 1359.74 78.0533H1353.58ZM1389.65 96L1388.27 92.24H1377.23L1375.84 96H1370.35L1379.01 73.6H1386.48L1395.17 96H1389.65ZM1378.72 88.2133H1386.77L1383.25 78.64H1382.24L1378.72 88.2133ZM1396.65 96V73.6H1401.95V91.5467H1414.86V96H1396.65Z" fill="white" fill-opacity="0.6"/>
  <path d="M947.013 36.7467C939.76 36.7467 934.747 31.84 934.747 24.8C934.747 17.76 939.76 12.8533 947.013 12.8533C951.92 12.8533 956.96 15.04 958.053 21.6267H952.96C952 18.7467 949.787 17.4667 947.013 17.4667C943.04 17.4667 940 20.48 940 24.8C940 29.0933 943.04 32.1333 947.013 32.1333C949.787 32.1333 952 30.8533 952.96 27.9467H958.053C956.96 34.56 951.973 36.7467 947.013 36.7467ZM959.959 36V13.6H965.266V31.5467H978.173V36H959.959ZM980.24 36V13.6H985.547V36H980.24ZM987.834 36V13.6H994.634L1000.18 29.3067H1000.58L1006.13 13.6H1012.93V36H1007.83V22.5067H1007.38L1002.45 36H998.314L993.381 22.5067H992.928V36H987.834ZM1033.72 36L1032.33 32.24H1021.29L1019.9 36H1014.41L1023.08 13.6H1030.54L1039.24 36H1033.72ZM1022.78 28.2133H1030.84L1027.32 18.64H1026.3L1022.78 28.2133ZM1058.15 13.6V18.0533H1049.75V36H1044.42V18.0533H1036.04V13.6H1058.15ZM1060.27 36V13.6H1079.12V17.9467H1065.58V22.8533H1078.65V26.6933H1065.58V31.6267H1079.12V36H1060.27Z" fill="white" fill-opacity="0.6"/>
  <path d="M1132.01 155.747C1124.76 155.747 1119.75 150.84 1119.75 143.8C1119.75 136.76 1124.76 131.853 1132.01 131.853C1136.92 131.853 1141.96 134.04 1143.05 140.627H1137.96C1137 137.747 1134.79 136.467 1132.01 136.467C1128.04 136.467 1125 139.48 1125 143.8C1125 148.093 1128.04 151.133 1132.01 151.133C1134.79 151.133 1137 149.853 1137.96 146.947H1143.05C1141.96 153.56 1136.97 155.747 1132.01 155.747ZM1144.96 155V132.6H1150.27V150.547H1163.17V155H1144.96ZM1165.24 155V132.6H1170.55V155H1165.24ZM1172.83 155V132.6H1179.63L1185.18 148.307H1185.58L1191.13 132.6H1197.93V155H1192.83V141.507H1192.38L1187.45 155H1183.31L1178.38 141.507H1177.93V155H1172.83ZM1218.72 155L1217.33 151.24H1206.29L1204.9 155H1199.41L1208.08 132.6H1215.54L1224.24 155H1218.72ZM1207.78 147.213H1215.84L1212.32 137.64H1211.3L1207.78 147.213ZM1243.15 132.6V137.053H1234.75V155H1229.42V137.053H1221.04V132.6H1243.15ZM1245.27 155V132.6H1264.12V136.947H1250.58V141.853H1263.65V145.693H1250.58V150.627H1264.12V155H1245.27Z" fill="white" fill-opacity="0.6"/>
  <path d="M1133.01 36.7467C1125.76 36.7467 1120.75 31.84 1120.75 24.8C1120.75 17.76 1125.76 12.8533 1133.01 12.8533C1137.92 12.8533 1142.96 15.04 1144.05 21.6267H1138.96C1138 18.7467 1135.79 17.4667 1133.01 17.4667C1129.04 17.4667 1126 20.48 1126 24.8C1126 29.0933 1129.04 32.1333 1133.01 32.1333C1135.79 32.1333 1138 30.8533 1138.96 27.9467H1144.05C1142.96 34.56 1137.97 36.7467 1133.01 36.7467ZM1162.39 13.6H1167.72V36H1162.39V27.0133H1151.27V36H1145.96V13.6H1151.27V22.5867H1162.39V13.6ZM1188.5 36L1187.11 32.24H1176.07L1174.68 36H1169.19L1177.86 13.6H1185.32L1194.02 36H1188.5ZM1177.56 28.2133H1185.62L1182.1 18.64H1181.08L1177.56 28.2133ZM1195.49 36V13.6H1201.65L1212.05 28.6667H1212.56V13.6H1217.76V36H1211.7L1201.17 20.9333H1200.69V36H1195.49ZM1243.3 24.16V36H1239.97L1239.92 32.7467C1238.37 35.0933 1235.54 36.7467 1231.57 36.7467C1224.8 36.7467 1219.62 31.84 1219.62 24.8C1219.62 17.76 1224.64 12.8533 1231.99 12.8533C1236.85 12.8533 1241.76 15.12 1242.95 20.7467H1237.65C1236.8 18.72 1234.77 17.4667 1232.08 17.4667C1227.91 17.4667 1224.88 20.48 1224.88 24.8C1224.88 29.0933 1227.94 32.1333 1231.97 32.1333C1234.21 32.1333 1237.33 31.1467 1238.1 27.76H1231.6V24.16H1243.3ZM1245.71 36V13.6H1264.56V17.9467H1251.02V22.8533H1264.08V26.6933H1251.02V31.6267H1264.56V36H1245.71Z" fill="white" fill-opacity="0.6"/>
  <path d="M1318.01 155.747C1310.76 155.747 1305.75 150.84 1305.75 143.8C1305.75 136.76 1310.76 131.853 1318.01 131.853C1322.92 131.853 1327.96 134.04 1329.05 140.627H1323.96C1323 137.747 1320.79 136.467 1318.01 136.467C1314.04 136.467 1311 139.48 1311 143.8C1311 148.093 1314.04 151.133 1318.01 151.133C1320.79 151.133 1323 149.853 1323.96 146.947H1329.05C1327.96 153.56 1322.97 155.747 1318.01 155.747ZM1347.39 132.6H1352.72V155H1347.39V146.013H1336.27V155H1330.96V132.6H1336.27V141.587H1347.39V132.6ZM1373.5 155L1372.11 151.24H1361.07L1359.68 155H1354.19L1362.86 132.6H1370.32L1379.02 155H1373.5ZM1362.56 147.213H1370.62L1367.1 137.64H1366.08L1362.56 147.213ZM1380.49 155V132.6H1386.65L1397.05 147.667H1397.56V132.6H1402.76V155H1396.7L1386.17 139.933H1385.69V155H1380.49ZM1428.3 143.16V155H1424.97L1424.92 151.747C1423.37 154.093 1420.54 155.747 1416.57 155.747C1409.8 155.747 1404.62 150.84 1404.62 143.8C1404.62 136.76 1409.64 131.853 1416.99 131.853C1421.85 131.853 1426.76 134.12 1427.95 139.747H1422.65C1421.8 137.72 1419.77 136.467 1417.08 136.467C1412.91 136.467 1409.88 139.48 1409.88 143.8C1409.88 148.093 1412.94 151.133 1416.97 151.133C1419.21 151.133 1422.33 150.147 1423.1 146.76H1416.6V143.16H1428.3ZM1430.71 155V132.6H1449.56V136.947H1436.02V141.853H1449.08V145.693H1436.02V150.627H1449.56V155H1430.71Z" fill="white" fill-opacity="0.6"/>
  <path d="M13.0133 155.747C5.76 155.747 0.746667 150.84 0.746667 143.8C0.746667 136.76 5.76 131.853 13.0133 131.853C17.92 131.853 22.96 134.04 24.0533 140.627H18.96C18 137.747 15.7867 136.467 13.0133 136.467C9.04 136.467 6 139.48 6 143.8C6 148.093 9.04 151.133 13.0133 151.133C15.7867 151.133 18 149.853 18.96 146.947H24.0533C22.96 153.56 17.9733 155.747 13.0133 155.747ZM42.3858 132.6H47.7192V155H42.3858V146.013H31.2658V155H25.9592V132.6H31.2658V141.587H42.3858V132.6ZM68.4971 155L67.1104 151.24H56.0704L54.6838 155H49.1904L57.8571 132.6H65.3237L74.0171 155H68.4971ZM57.5638 147.213H65.6171L62.0971 137.64H61.0838L57.5638 147.213ZM75.4904 155V132.6H81.6504L92.0504 147.667H92.5571V132.6H97.7571V155H91.7038L81.1704 139.933H80.6904V155H75.4904ZM123.302 143.16V155H119.968L119.915 151.747C118.368 154.093 115.542 155.747 111.568 155.747C104.795 155.747 99.6217 150.84 99.6217 143.8C99.6217 136.76 104.635 131.853 111.995 131.853C116.848 131.853 121.755 134.12 122.955 139.747H117.648C116.795 137.72 114.768 136.467 112.075 136.467C107.915 136.467 104.875 139.48 104.875 143.8C104.875 148.093 107.942 151.133 111.968 151.133C114.208 151.133 117.328 150.147 118.102 146.76H111.595V143.16H123.302ZM125.709 155V132.6H144.562V136.947H131.016V141.853H144.083V145.693H131.016V150.627H144.562V155H125.709Z" fill="white" fill-opacity="0.6"/>
  <path d="M1.14667 96V73.6H19.9733V78.0533H6.45333V83.3333H19.2267V87.36H6.45333V96H1.14667ZM33.0404 96.7467C26.1337 96.7467 22.2404 93.4933 22.2404 86.6667V73.6H27.6004V86.5333C27.6004 90.1067 29.3871 92.2667 33.0404 92.2667C36.6938 92.2667 38.5071 90.1067 38.5071 86.5333V73.6H43.8404V86.6667C43.8404 93.4933 39.9471 96.7467 33.0404 96.7467ZM68.0888 73.6V78.0533H59.6888V96H54.3554V78.0533H45.9821V73.6H68.0888ZM81.0092 96.7467C74.1025 96.7467 70.2092 93.4933 70.2092 86.6667V73.6H75.5692V86.5333C75.5692 90.1067 77.3558 92.2667 81.0092 92.2667C84.6625 92.2667 86.4758 90.1067 86.4758 86.5333V73.6H91.8092V86.6667C91.8092 93.4933 87.9158 96.7467 81.0092 96.7467ZM115.578 96H110.298L106.618 89.3333H99.3908V96H94.0842V73.6H105.844C111.844 73.6 115.017 76.4 115.017 81.6267C115.017 84.7467 113.498 87.0133 111.204 88.2667L115.578 96ZM99.3908 78.0533V85.2533H105.551C108.244 85.2533 109.738 84.0267 109.738 81.6533C109.738 79.28 108.244 78.0533 105.551 78.0533H99.3908ZM117.365 96V73.6H136.219V77.9467H122.672V82.8533H135.739V86.6933H122.672V91.6267H136.219V96H117.365Z" fill="white" fill-opacity="0.6"/>
  <path d="M199.12 73.6V78.0533H190.72V96H185.387V78.0533H177.013V73.6H199.12ZM211.415 96.7467C204.108 96.7467 199.122 91.84 199.122 84.8C199.122 77.76 204.108 72.8533 211.415 72.8533C218.748 72.8533 223.735 77.76 223.735 84.8C223.735 91.84 218.748 96.7467 211.415 96.7467ZM211.415 92.1333C215.415 92.1333 218.455 89.2 218.455 84.8C218.455 80.4 215.415 77.4667 211.415 77.4667C207.442 77.4667 204.375 80.4 204.375 84.8C204.375 89.2 207.442 92.1333 211.415 92.1333ZM235.909 73.6C244.602 73.6 247.909 78.4267 247.909 84.8C247.909 91.1733 244.602 96 235.909 96H225.615V73.6H235.909ZM235.882 91.52C240.229 91.52 242.575 89.12 242.575 84.8C242.575 80.48 240.229 78.08 235.882 78.08H230.975L230.922 91.52H235.882ZM266.372 96L264.985 92.24H253.945L252.559 96H247.065L255.732 73.6H263.199L271.892 96H266.372ZM255.439 88.2133H263.492L259.972 78.64H258.959L255.439 88.2133ZM290.902 73.6L281.648 88.8267V96H276.315V88.8L267.088 73.6H272.742L278.715 83.6267H279.275L285.248 73.6H290.902Z" fill="white" fill-opacity="0.6"/>
  <path d="M422.44 73.6C431.133 73.6 434.44 78.4267 434.44 84.8C434.44 91.1733 431.133 96 422.44 96H412.147V73.6H422.44ZM422.413 91.52C426.76 91.52 429.107 89.12 429.107 84.8C429.107 80.48 426.76 78.08 422.413 78.08H417.507L417.453 91.52H422.413ZM448.295 96.7467C441.041 96.7467 436.028 91.84 436.028 84.8C436.028 77.76 441.041 72.8533 448.295 72.8533C453.201 72.8533 458.241 75.04 459.335 81.6267H454.241C453.281 78.7467 451.068 77.4667 448.295 77.4667C444.321 77.4667 441.281 80.48 441.281 84.8C441.281 89.0933 444.321 92.1333 448.295 92.1333C451.068 92.1333 453.281 90.8533 454.241 87.9467H459.335C458.241 94.56 453.255 96.7467 448.295 96.7467ZM482.734 96H477.454L473.774 89.3333H466.547V96H461.24V73.6H473C479 73.6 482.174 76.4 482.174 81.6267C482.174 84.7467 480.654 87.0133 478.36 88.2667L482.734 96ZM466.547 78.0533V85.2533H472.707C475.4 85.2533 476.894 84.0267 476.894 81.6533C476.894 79.28 475.4 78.0533 472.707 78.0533H466.547ZM505.964 73.6V78.0533H497.564V96H492.23V78.0533H483.857V73.6H505.964Z" fill="white" fill-opacity="0.9"/>
  <path d="M1399.44 13.6C1408.13 13.6 1411.44 18.4267 1411.44 24.8C1411.44 31.1733 1408.13 36 1399.44 36H1389.15V13.6H1399.44ZM1399.41 31.52C1403.76 31.52 1406.11 29.12 1406.11 24.8C1406.11 20.48 1403.76 18.08 1399.41 18.08H1394.51L1394.45 31.52H1399.41ZM1425.29 36.7467C1418.04 36.7467 1413.03 31.84 1413.03 24.8C1413.03 17.76 1418.04 12.8533 1425.29 12.8533C1430.2 12.8533 1435.24 15.04 1436.33 21.6267H1431.24C1430.28 18.7467 1428.07 17.4667 1425.29 17.4667C1421.32 17.4667 1418.28 20.48 1418.28 24.8C1418.28 29.0933 1421.32 32.1333 1425.29 32.1333C1428.07 32.1333 1430.28 30.8533 1431.24 27.9467H1436.33C1435.24 34.56 1430.25 36.7467 1425.29 36.7467ZM1459.73 36H1454.45L1450.77 29.3333H1443.55V36H1438.24V13.6H1450C1456 13.6 1459.17 16.4 1459.17 21.6267C1459.17 24.7467 1457.65 27.0133 1455.36 28.2667L1459.73 36ZM1443.55 18.0533V25.2533H1449.71C1452.4 25.2533 1453.89 24.0267 1453.89 21.6533C1453.89 19.28 1452.4 18.0533 1449.71 18.0533H1443.55ZM1482.96 13.6V18.0533H1474.56V36H1469.23V18.0533H1460.86V13.6H1482.96Z" fill="white" fill-opacity="0.6"/>
  <path d="M565.64 96H560.36L556.68 89.3333H549.453V96H544.147V73.6H555.907C561.907 73.6 565.08 76.4 565.08 81.6267C565.08 84.7467 563.56 87.0133 561.267 88.2667L565.64 96ZM549.453 78.0533V85.2533H555.613C558.307 85.2533 559.8 84.0267 559.8 81.6533C559.8 79.28 558.307 78.0533 555.613 78.0533H549.453ZM567.428 96V73.6H586.281V77.9467H572.735V82.8533H585.801V86.6933H572.735V91.6267H586.281V96H567.428ZM611.583 84.16V96H608.25L608.196 92.7467C606.65 95.0933 603.823 96.7467 599.85 96.7467C593.076 96.7467 587.903 91.84 587.903 84.8C587.903 77.76 592.916 72.8533 600.276 72.8533C605.13 72.8533 610.036 75.12 611.236 80.7467H605.93C605.076 78.72 603.05 77.4667 600.356 77.4667C596.196 77.4667 593.156 80.48 593.156 84.8C593.156 89.0933 596.223 92.1333 600.25 92.1333C602.49 92.1333 605.61 91.1467 606.383 87.76H599.876V84.16H611.583ZM613.99 96V73.6H619.297V96H613.99ZM631.451 96.7467C624.624 96.7467 621.024 94.32 621.051 89.0667H625.851C626.037 91.1733 627.771 92.5067 631.451 92.5333C634.918 92.5333 636.811 91.36 636.811 89.6C636.811 88.0533 635.558 87.28 632.891 86.8267L630.118 86.3467C625.878 85.6 621.664 84.48 621.664 79.6C621.664 75.36 625.238 72.8533 631.504 72.8533C637.344 72.8533 641.398 74.9067 641.451 80.4533H636.677C636.331 78.4267 634.758 77.0667 631.398 77.0667C628.358 77.0667 626.758 78.1067 626.758 79.84C626.758 81.2 627.851 82.0533 630.144 82.48L632.571 82.9067C636.837 83.68 642.091 84.4 642.091 89.76C642.091 94.2133 638.438 96.7467 631.451 96.7467ZM664.683 73.6V78.0533H656.283V96H650.949V78.0533H642.576V73.6H664.683ZM688.296 96H683.016L679.336 89.3333H672.11V96H666.803V73.6H678.563C684.563 73.6 687.736 76.4 687.736 81.6267C687.736 84.7467 686.216 87.0133 683.923 88.2667L688.296 96ZM672.11 78.0533V85.2533H678.27C680.963 85.2533 682.456 84.0267 682.456 81.6533C682.456 79.28 680.963 78.0533 678.27 78.0533H672.11ZM708.185 96L706.798 92.24H695.758L694.371 96H688.878L697.545 73.6H705.011L713.705 96H708.185ZM697.251 88.2133H705.305L701.785 78.64H700.771L697.251 88.2133ZM732.62 73.6V78.0533H724.22V96H718.887V78.0533H710.513V73.6H732.62ZM734.74 96V73.6H740.047V96H734.74ZM754.227 96.7467C746.921 96.7467 741.934 91.84 741.934 84.8C741.934 77.76 746.921 72.8533 754.227 72.8533C761.561 72.8533 766.548 77.76 766.548 84.8C766.548 91.84 761.561 96.7467 754.227 96.7467ZM754.227 92.1333C758.228 92.1333 761.267 89.2 761.267 84.8C761.267 80.4 758.228 77.4667 754.227 77.4667C750.254 77.4667 747.188 80.4 747.188 84.8C747.188 89.2 750.254 92.1333 754.227 92.1333ZM768.428 96V73.6H774.588L784.988 88.6667H785.495V73.6H790.695V96H784.641L774.108 80.9333H773.628V96H768.428Z" fill="white" fill-opacity="0.6"/>
  <path d="M342.013 96.7467C334.76 96.7467 329.747 91.84 329.747 84.8C329.747 77.76 334.76 72.8533 342.013 72.8533C346.92 72.8533 351.96 75.04 353.053 81.6267H347.96C347 78.7467 344.787 77.4667 342.013 77.4667C338.04 77.4667 335 80.48 335 84.8C335 89.0933 338.04 92.1333 342.013 92.1333C344.787 92.1333 347 90.8533 347.96 87.9467H353.053C351.96 94.56 346.973 96.7467 342.013 96.7467ZM365.759 96.7467C358.852 96.7467 354.959 93.4933 354.959 86.6667V73.6H360.319V86.5333C360.319 90.1067 362.106 92.2667 365.759 92.2667C369.413 92.2667 371.226 90.1067 371.226 86.5333V73.6H376.559V86.6667C376.559 93.4933 372.666 96.7467 365.759 96.7467Z" fill="white" fill-opacity="0.6"/>
  <path d="M1318.01 36.7467C1310.76 36.7467 1305.75 31.84 1305.75 24.8C1305.75 17.76 1310.76 12.8533 1318.01 12.8533C1322.92 12.8533 1327.96 15.04 1329.05 21.6267H1323.96C1323 18.7467 1320.79 17.4667 1318.01 17.4667C1314.04 17.4667 1311 20.48 1311 24.8C1311 29.0933 1314.04 32.1333 1318.01 32.1333C1320.79 32.1333 1323 30.8533 1323.96 27.9467H1329.05C1327.96 34.56 1322.97 36.7467 1318.01 36.7467ZM1341.76 36.7467C1334.85 36.7467 1330.96 33.4933 1330.96 26.6667V13.6H1336.32V26.5333C1336.32 30.1067 1338.11 32.2667 1341.76 32.2667C1345.41 32.2667 1347.23 30.1067 1347.23 26.5333V13.6H1352.56V26.6667C1352.56 33.4933 1348.67 36.7467 1341.76 36.7467Z" fill="white" fill-opacity="0.9"/>
  <path d="M13.0133 213.747C5.76 213.747 0.746667 208.84 0.746667 201.8C0.746667 194.76 5.76 189.853 13.0133 189.853C17.92 189.853 22.96 192.04 24.0533 198.627H18.96C18 195.747 15.7867 194.467 13.0133 194.467C9.04 194.467 6 197.48 6 201.8C6 206.093 9.04 209.133 13.0133 209.133C15.7867 209.133 18 207.853 18.96 204.947H24.0533C22.96 211.56 17.9733 213.747 13.0133 213.747ZM43.0596 213L41.6729 209.24H30.6329L29.2463 213H23.7529L32.4196 190.6H39.8862L48.5796 213H43.0596ZM32.1263 205.213H40.1796L36.6596 195.64H35.6463L32.1263 205.213ZM50.0529 213V190.6H56.2129L66.6129 205.667H67.1196V190.6H72.3196V213H66.2663L55.7329 197.933H55.2529V213H50.0529ZM86.4508 213.747C79.1975 213.747 74.1842 208.84 74.1842 201.8C74.1842 194.76 79.1975 189.853 86.4508 189.853C91.3575 189.853 96.3975 192.04 97.4908 198.627H92.3975C91.4375 195.747 89.2242 194.467 86.4508 194.467C82.4775 194.467 79.4375 197.48 79.4375 201.8C79.4375 206.093 82.4775 209.133 86.4508 209.133C89.2242 209.133 91.4375 207.853 92.3975 204.947H97.4908C96.3975 211.56 91.4108 213.747 86.4508 213.747ZM99.3967 213V190.6H118.25V194.947H104.703V199.853H117.77V203.693H104.703V208.627H118.25V213H99.3967ZM120.553 213V190.6H125.86V208.547H138.766V213H120.553ZM140.834 213V190.6H146.141V208.547H159.048V213H140.834ZM179.341 213L177.954 209.24H166.914L165.528 213H160.034L168.701 190.6H176.167L184.861 213H179.341ZM168.408 205.213H176.461L172.941 195.64H171.928L168.408 205.213ZM203.776 190.6V195.053H195.376V213H190.043V195.053H181.67V190.6H203.776ZM205.897 213V190.6H211.203V213H205.897ZM225.384 213.747C218.077 213.747 213.09 208.84 213.09 201.8C213.09 194.76 218.077 189.853 225.384 189.853C232.717 189.853 237.704 194.76 237.704 201.8C237.704 208.84 232.717 213.747 225.384 213.747ZM225.384 209.133C229.384 209.133 232.424 206.2 232.424 201.8C232.424 197.4 229.384 194.467 225.384 194.467C221.41 194.467 218.344 197.4 218.344 201.8C218.344 206.2 221.41 209.133 225.384 209.133ZM239.584 213V190.6H245.744L256.144 205.667H256.651V190.6H261.851V213H255.798L245.264 197.933H244.784V213H239.584Z" fill="white" fill-opacity="0.9"/>
  <path d="M318.44 189.6C327.133 189.6 330.44 194.427 330.44 200.8C330.44 207.173 327.133 212 318.44 212H308.147V189.6H318.44ZM318.413 207.52C322.76 207.52 325.107 205.12 325.107 200.8C325.107 196.48 322.76 194.08 318.413 194.08H313.507L313.453 207.52H318.413ZM332.428 212V189.6H351.281V193.947H337.735V198.853H350.801V202.693H337.735V207.627H351.281V212H332.428ZM368.906 202.391C368.771 202.401 368.427 202.651 367.875 203.141C366.823 204.057 366.156 204.516 365.875 204.516H354.594C354.719 204.505 355.057 204.26 355.609 203.781C356.172 203.292 356.599 202.938 356.891 202.719C357.193 202.5 357.438 202.391 357.625 202.391H368.906ZM372.022 212V189.6H390.875V193.947H377.328V198.853H390.395V202.693H377.328V207.627H390.875V212H372.022ZM393.178 212V189.6H399.978L405.525 205.307H405.925L411.471 189.6H418.271V212H413.178V198.507H412.725L407.791 212H403.658L398.725 198.507H398.271V212H393.178ZM420.553 212V189.6H425.86V212H420.553ZM438.013 212.747C431.187 212.747 427.587 210.32 427.613 205.067H432.413C432.6 207.173 434.333 208.507 438.013 208.533C441.48 208.533 443.373 207.36 443.373 205.6C443.373 204.053 442.12 203.28 439.453 202.827L436.68 202.347C432.44 201.6 428.227 200.48 428.227 195.6C428.227 191.36 431.8 188.853 438.067 188.853C443.907 188.853 447.96 190.907 448.013 196.453H443.24C442.893 194.427 441.32 193.067 437.96 193.067C434.92 193.067 433.32 194.107 433.32 195.84C433.32 197.2 434.413 198.053 436.707 198.48L439.133 198.907C443.4 199.68 448.653 200.4 448.653 205.76C448.653 210.213 445 212.747 438.013 212.747ZM460.482 212.747C453.655 212.747 450.055 210.32 450.082 205.067H454.882C455.069 207.173 456.802 208.507 460.482 208.533C463.949 208.533 465.842 207.36 465.842 205.6C465.842 204.053 464.589 203.28 461.922 202.827L459.149 202.347C454.909 201.6 450.695 200.48 450.695 195.6C450.695 191.36 454.269 188.853 460.535 188.853C466.375 188.853 470.429 190.907 470.482 196.453H465.709C465.362 194.427 463.789 193.067 460.429 193.067C457.389 193.067 455.789 194.107 455.789 195.84C455.789 197.2 456.882 198.053 459.175 198.48L461.602 198.907C465.869 199.68 471.122 200.4 471.122 205.76C471.122 210.213 467.469 212.747 460.482 212.747ZM472.928 212V189.6H478.235V212H472.928ZM492.415 212.747C485.108 212.747 480.122 207.84 480.122 200.8C480.122 193.76 485.108 188.853 492.415 188.853C499.748 188.853 504.735 193.76 504.735 200.8C504.735 207.84 499.748 212.747 492.415 212.747ZM492.415 208.133C496.415 208.133 499.455 205.2 499.455 200.8C499.455 196.4 496.415 193.467 492.415 193.467C488.442 193.467 485.375 196.4 485.375 200.8C485.375 205.2 488.442 208.133 492.415 208.133ZM506.615 212V189.6H512.775L523.175 204.667H523.682V189.6H528.882V212H522.829L512.295 196.933H511.815V212H506.615Z" fill="white" fill-opacity="0.6"/>
  <path d="M846.44 248.6C855.133 248.6 858.44 253.427 858.44 259.8C858.44 266.173 855.133 271 846.44 271H836.147V248.6H846.44ZM846.413 266.52C850.76 266.52 853.107 264.12 853.107 259.8C853.107 255.48 850.76 253.08 846.413 253.08H841.507L841.453 266.52H846.413ZM860.428 271V248.6H879.281V252.947H865.735V257.853H878.801V261.693H865.735V266.627H879.281V271H860.428ZM896.906 261.391C896.771 261.401 896.427 261.651 895.875 262.141C894.823 263.057 894.156 263.516 893.875 263.516H882.594C882.719 263.505 883.057 263.26 883.609 262.781C884.172 262.292 884.599 261.938 884.891 261.719C885.193 261.5 885.438 261.391 885.625 261.391H896.906ZM900.022 271V248.6H918.875V252.947H905.328V257.853H918.395V261.693H905.328V266.627H918.875V271H900.022ZM921.178 271V248.6H927.978L933.525 264.307H933.925L939.471 248.6H946.271V271H941.178V257.507H940.725L935.791 271H931.658L926.725 257.507H926.271V271H921.178ZM948.553 271V248.6H953.86V271H948.553ZM966.013 271.747C959.187 271.747 955.587 269.32 955.613 264.067H960.413C960.6 266.173 962.333 267.507 966.013 267.533C969.48 267.533 971.373 266.36 971.373 264.6C971.373 263.053 970.12 262.28 967.453 261.827L964.68 261.347C960.44 260.6 956.227 259.48 956.227 254.6C956.227 250.36 959.8 247.853 966.067 247.853C971.907 247.853 975.96 249.907 976.013 255.453H971.24C970.893 253.427 969.32 252.067 965.96 252.067C962.92 252.067 961.32 253.107 961.32 254.84C961.32 256.2 962.413 257.053 964.707 257.48L967.133 257.907C971.4 258.68 976.653 259.4 976.653 264.76C976.653 269.213 973 271.747 966.013 271.747ZM988.482 271.747C981.655 271.747 978.055 269.32 978.082 264.067H982.882C983.069 266.173 984.802 267.507 988.482 267.533C991.949 267.533 993.842 266.36 993.842 264.6C993.842 263.053 992.589 262.28 989.922 261.827L987.149 261.347C982.909 260.6 978.695 259.48 978.695 254.6C978.695 250.36 982.269 247.853 988.535 247.853C994.375 247.853 998.429 249.907 998.482 255.453H993.709C993.362 253.427 991.789 252.067 988.429 252.067C985.389 252.067 983.789 253.107 983.789 254.84C983.789 256.2 984.882 257.053 987.175 257.48L989.602 257.907C993.869 258.68 999.122 259.4 999.122 264.76C999.122 269.213 995.469 271.747 988.482 271.747ZM1000.93 271V248.6H1006.23V271H1000.93ZM1020.41 271.747C1013.11 271.747 1008.12 266.84 1008.12 259.8C1008.12 252.76 1013.11 247.853 1020.41 247.853C1027.75 247.853 1032.74 252.76 1032.74 259.8C1032.74 266.84 1027.75 271.747 1020.41 271.747ZM1020.41 267.133C1024.42 267.133 1027.45 264.2 1027.45 259.8C1027.45 255.4 1024.42 252.467 1020.41 252.467C1016.44 252.467 1013.38 255.4 1013.38 259.8C1013.38 264.2 1016.44 267.133 1020.41 267.133ZM1034.62 271V248.6H1040.78L1051.18 263.667H1051.68V248.6H1056.88V271H1050.83L1040.3 255.933H1039.82V271H1034.62Z" fill="white" fill-opacity="0.9"/>
  <path d="M585.013 213.747C577.76 213.747 572.747 208.84 572.747 201.8C572.747 194.76 577.76 189.853 585.013 189.853C589.92 189.853 594.96 192.04 596.053 198.627H590.96C590 195.747 587.787 194.467 585.013 194.467C581.04 194.467 578 197.48 578 201.8C578 206.093 581.04 209.133 585.013 209.133C587.787 209.133 590 207.853 590.96 204.947H596.053C594.96 211.56 589.973 213.747 585.013 213.747ZM615.06 213L613.673 209.24H602.633L601.246 213H595.753L604.42 190.6H611.886L620.58 213H615.06ZM604.126 205.213H612.18L608.66 195.64H607.646L604.126 205.213ZM643.546 213H638.266L634.586 206.333H627.36V213H622.053V190.6H633.813C639.813 190.6 642.986 193.4 642.986 198.627C642.986 201.747 641.466 204.013 639.173 205.267L643.546 213ZM627.36 195.053V202.253H633.52C636.213 202.253 637.706 201.027 637.706 198.653C637.706 196.28 636.213 195.053 633.52 195.053H627.36ZM662.694 201.24C665.121 202.227 666.507 203.987 666.507 206.68C666.507 210.387 663.921 213 657.307 213H645.334V190.6H657.361C663.761 190.6 665.788 193.24 665.788 196.333C665.788 198.707 664.614 200.04 662.694 200.893V201.24ZM656.961 194.76H650.641V199.72H656.961C659.388 199.72 660.694 198.893 660.694 197.267C660.694 195.64 659.388 194.76 656.961 194.76ZM657.227 208.84C659.708 208.84 661.121 207.667 661.121 205.88C661.121 204.067 659.708 203.08 657.227 203.08H650.641V208.84H657.227ZM680.134 213.747C672.827 213.747 667.84 208.84 667.84 201.8C667.84 194.76 672.827 189.853 680.134 189.853C687.467 189.853 692.454 194.76 692.454 201.8C692.454 208.84 687.467 213.747 680.134 213.747ZM680.134 209.133C684.134 209.133 687.174 206.2 687.174 201.8C687.174 197.4 684.134 194.467 680.134 194.467C676.16 194.467 673.094 197.4 673.094 201.8C673.094 206.2 676.16 209.133 680.134 209.133ZM694.334 213V190.6H700.494L710.894 205.667H711.401V190.6H716.601V213H710.548L700.014 197.933H699.534V213H694.334ZM725.615 213V190.6H731.775L742.175 205.667H742.682V190.6H747.882V213H741.829L731.295 197.933H730.815V213H725.615ZM750.147 213V190.6H769V194.947H755.453V199.853H768.52V203.693H755.453V208.627H769V213H750.147ZM782.103 213.747C775.196 213.747 771.303 210.493 771.303 203.667V190.6H776.663V203.533C776.663 207.107 778.45 209.267 782.103 209.267C785.756 209.267 787.57 207.107 787.57 203.533V190.6H792.903V203.667C792.903 210.493 789.01 213.747 782.103 213.747ZM817.151 190.6V195.053H808.751V213H803.418V195.053H795.045V190.6H817.151ZM840.765 213H835.485L831.805 206.333H824.578V213H819.272V190.6H831.032C837.032 190.6 840.205 193.4 840.205 198.627C840.205 201.747 838.685 204.013 836.392 205.267L840.765 213ZM824.578 195.053V202.253H830.738C833.432 202.253 834.925 201.027 834.925 198.653C834.925 196.28 833.432 195.053 830.738 195.053H824.578ZM860.653 213L859.267 209.24H848.227L846.84 213H841.347L850.013 190.6H857.48L866.173 213H860.653ZM849.72 205.213H857.773L854.253 195.64H853.24L849.72 205.213ZM867.647 213V190.6H872.953V208.547H885.86V213H867.647Z" fill="white" fill-opacity="0.6"/>
  <path d="M1114.01 272.747C1106.76 272.747 1101.75 267.84 1101.75 260.8C1101.75 253.76 1106.76 248.853 1114.01 248.853C1118.92 248.853 1123.96 251.04 1125.05 257.627H1119.96C1119 254.747 1116.79 253.467 1114.01 253.467C1110.04 253.467 1107 256.48 1107 260.8C1107 265.093 1110.04 268.133 1114.01 268.133C1116.79 268.133 1119 266.853 1119.96 263.947H1125.05C1123.96 270.56 1118.97 272.747 1114.01 272.747ZM1144.06 272L1142.67 268.24H1131.63L1130.25 272H1124.75L1133.42 249.6H1140.89L1149.58 272H1144.06ZM1133.13 264.213H1141.18L1137.66 254.64H1136.65L1133.13 264.213ZM1172.55 272H1167.27L1163.59 265.333H1156.36V272H1151.05V249.6H1162.81C1168.81 249.6 1171.99 252.4 1171.99 257.627C1171.99 260.747 1170.47 263.013 1168.17 264.267L1172.55 272ZM1156.36 254.053V261.253H1162.52C1165.21 261.253 1166.71 260.027 1166.71 257.653C1166.71 255.28 1165.21 254.053 1162.52 254.053H1156.36ZM1191.69 260.24C1194.12 261.227 1195.51 262.987 1195.51 265.68C1195.51 269.387 1192.92 272 1186.31 272H1174.33V249.6H1186.36C1192.76 249.6 1194.79 252.24 1194.79 255.333C1194.79 257.707 1193.61 259.04 1191.69 259.893V260.24ZM1185.96 253.76H1179.64V258.72H1185.96C1188.39 258.72 1189.69 257.893 1189.69 256.267C1189.69 254.64 1188.39 253.76 1185.96 253.76ZM1186.23 267.84C1188.71 267.84 1190.12 266.667 1190.12 264.88C1190.12 263.067 1188.71 262.08 1186.23 262.08H1179.64V267.84H1186.23ZM1209.13 272.747C1201.83 272.747 1196.84 267.84 1196.84 260.8C1196.84 253.76 1201.83 248.853 1209.13 248.853C1216.47 248.853 1221.45 253.76 1221.45 260.8C1221.45 267.84 1216.47 272.747 1209.13 272.747ZM1209.13 268.133C1213.13 268.133 1216.17 265.2 1216.17 260.8C1216.17 256.4 1213.13 253.467 1209.13 253.467C1205.16 253.467 1202.09 256.4 1202.09 260.8C1202.09 265.2 1205.16 268.133 1209.13 268.133ZM1223.33 272V249.6H1229.49L1239.89 264.667H1240.4V249.6H1245.6V272H1239.55L1229.01 256.933H1228.53V272H1223.33ZM1254.62 272V249.6H1260.78L1271.18 264.667H1271.68V249.6H1276.88V272H1270.83L1260.3 256.933H1259.82V272H1254.62ZM1279.15 272V249.6H1298V253.947H1284.45V258.853H1297.52V262.693H1284.45V267.627H1298V272H1279.15ZM1311.1 272.747C1304.2 272.747 1300.3 269.493 1300.3 262.667V249.6H1305.66V262.533C1305.66 266.107 1307.45 268.267 1311.1 268.267C1314.76 268.267 1316.57 266.107 1316.57 262.533V249.6H1321.9V262.667C1321.9 269.493 1318.01 272.747 1311.1 272.747ZM1346.15 249.6V254.053H1337.75V272H1332.42V254.053H1324.04V249.6H1346.15ZM1369.77 272H1364.49L1360.81 265.333H1353.58V272H1348.27V249.6H1360.03C1366.03 249.6 1369.2 252.4 1369.2 257.627C1369.2 260.747 1367.69 263.013 1365.39 264.267L1369.77 272ZM1353.58 254.053V261.253H1359.74C1362.43 261.253 1363.93 260.027 1363.93 257.653C1363.93 255.28 1362.43 254.053 1359.74 254.053H1353.58ZM1389.65 272L1388.27 268.24H1377.23L1375.84 272H1370.35L1379.01 249.6H1386.48L1395.17 272H1389.65ZM1378.72 264.213H1386.77L1383.25 254.64H1382.24L1378.72 264.213ZM1396.65 272V249.6H1401.95V267.547H1414.86V272H1396.65Z" fill="white" fill-opacity="0.6"/>
  <path d="M947.013 213.747C939.76 213.747 934.747 208.84 934.747 201.8C934.747 194.76 939.76 189.853 947.013 189.853C951.92 189.853 956.96 192.04 958.053 198.627H952.96C952 195.747 949.787 194.467 947.013 194.467C943.04 194.467 940 197.48 940 201.8C940 206.093 943.04 209.133 947.013 209.133C949.787 209.133 952 207.853 952.96 204.947H958.053C956.96 211.56 951.973 213.747 947.013 213.747ZM959.959 213V190.6H965.266V208.547H978.173V213H959.959ZM980.24 213V190.6H985.547V213H980.24ZM987.834 213V190.6H994.634L1000.18 206.307H1000.58L1006.13 190.6H1012.93V213H1007.83V199.507H1007.38L1002.45 213H998.314L993.381 199.507H992.928V213H987.834ZM1033.72 213L1032.33 209.24H1021.29L1019.9 213H1014.41L1023.08 190.6H1030.54L1039.24 213H1033.72ZM1022.78 205.213H1030.84L1027.32 195.64H1026.3L1022.78 205.213ZM1058.15 190.6V195.053H1049.75V213H1044.42V195.053H1036.04V190.6H1058.15ZM1060.27 213V190.6H1079.12V194.947H1065.58V199.853H1078.65V203.693H1065.58V208.627H1079.12V213H1060.27Z" fill="white" fill-opacity="0.6"/>
  <path d="M1133.01 213.747C1125.76 213.747 1120.75 208.84 1120.75 201.8C1120.75 194.76 1125.76 189.853 1133.01 189.853C1137.92 189.853 1142.96 192.04 1144.05 198.627H1138.96C1138 195.747 1135.79 194.467 1133.01 194.467C1129.04 194.467 1126 197.48 1126 201.8C1126 206.093 1129.04 209.133 1133.01 209.133C1135.79 209.133 1138 207.853 1138.96 204.947H1144.05C1142.96 211.56 1137.97 213.747 1133.01 213.747ZM1162.39 190.6H1167.72V213H1162.39V204.013H1151.27V213H1145.96V190.6H1151.27V199.587H1162.39V190.6ZM1188.5 213L1187.11 209.24H1176.07L1174.68 213H1169.19L1177.86 190.6H1185.32L1194.02 213H1188.5ZM1177.56 205.213H1185.62L1182.1 195.64H1181.08L1177.56 205.213ZM1195.49 213V190.6H1201.65L1212.05 205.667H1212.56V190.6H1217.76V213H1211.7L1201.17 197.933H1200.69V213H1195.49ZM1243.3 201.16V213H1239.97L1239.92 209.747C1238.37 212.093 1235.54 213.747 1231.57 213.747C1224.8 213.747 1219.62 208.84 1219.62 201.8C1219.62 194.76 1224.64 189.853 1231.99 189.853C1236.85 189.853 1241.76 192.12 1242.95 197.747H1237.65C1236.8 195.72 1234.77 194.467 1232.08 194.467C1227.91 194.467 1224.88 197.48 1224.88 201.8C1224.88 206.093 1227.94 209.133 1231.97 209.133C1234.21 209.133 1237.33 208.147 1238.1 204.76H1231.6V201.16H1243.3ZM1245.71 213V190.6H1264.56V194.947H1251.02V199.853H1264.08V203.693H1251.02V208.627H1264.56V213H1245.71Z" fill="white" fill-opacity="0.6"/>
  <path d="M1.14667 272V249.6H19.9733V254.053H6.45333V259.333H19.2267V263.36H6.45333V272H1.14667ZM33.0404 272.747C26.1337 272.747 22.2404 269.493 22.2404 262.667V249.6H27.6004V262.533C27.6004 266.107 29.3871 268.267 33.0404 268.267C36.6938 268.267 38.5071 266.107 38.5071 262.533V249.6H43.8404V262.667C43.8404 269.493 39.9471 272.747 33.0404 272.747ZM68.0888 249.6V254.053H59.6888V272H54.3554V254.053H45.9821V249.6H68.0888ZM81.0092 272.747C74.1025 272.747 70.2092 269.493 70.2092 262.667V249.6H75.5692V262.533C75.5692 266.107 77.3558 268.267 81.0092 268.267C84.6625 268.267 86.4758 266.107 86.4758 262.533V249.6H91.8092V262.667C91.8092 269.493 87.9158 272.747 81.0092 272.747ZM115.578 272H110.298L106.618 265.333H99.3908V272H94.0842V249.6H105.844C111.844 249.6 115.017 252.4 115.017 257.627C115.017 260.747 113.498 263.013 111.204 264.267L115.578 272ZM99.3908 254.053V261.253H105.551C108.244 261.253 109.738 260.027 109.738 257.653C109.738 255.28 108.244 254.053 105.551 254.053H99.3908ZM117.365 272V249.6H136.219V253.947H122.672V258.853H135.739V262.693H122.672V267.627H136.219V272H117.365Z" fill="white" fill-opacity="0.6"/>
  <path d="M199.12 249.6V254.053H190.72V272H185.387V254.053H177.013V249.6H199.12ZM211.415 272.747C204.108 272.747 199.122 267.84 199.122 260.8C199.122 253.76 204.108 248.853 211.415 248.853C218.748 248.853 223.735 253.76 223.735 260.8C223.735 267.84 218.748 272.747 211.415 272.747ZM211.415 268.133C215.415 268.133 218.455 265.2 218.455 260.8C218.455 256.4 215.415 253.467 211.415 253.467C207.442 253.467 204.375 256.4 204.375 260.8C204.375 265.2 207.442 268.133 211.415 268.133ZM235.909 249.6C244.602 249.6 247.909 254.427 247.909 260.8C247.909 267.173 244.602 272 235.909 272H225.615V249.6H235.909ZM235.882 267.52C240.229 267.52 242.575 265.12 242.575 260.8C242.575 256.48 240.229 254.08 235.882 254.08H230.975L230.922 267.52H235.882ZM266.372 272L264.985 268.24H253.945L252.559 272H247.065L255.732 249.6H263.199L271.892 272H266.372ZM255.439 264.213H263.492L259.972 254.64H258.959L255.439 264.213ZM290.902 249.6L281.648 264.827V272H276.315V264.8L267.088 249.6H272.742L278.715 259.627H279.275L285.248 249.6H290.902Z" fill="white" fill-opacity="0.6"/>
  <path d="M422.44 249.6C431.133 249.6 434.44 254.427 434.44 260.8C434.44 267.173 431.133 272 422.44 272H412.147V249.6H422.44ZM422.413 267.52C426.76 267.52 429.107 265.12 429.107 260.8C429.107 256.48 426.76 254.08 422.413 254.08H417.507L417.453 267.52H422.413ZM448.295 272.747C441.041 272.747 436.028 267.84 436.028 260.8C436.028 253.76 441.041 248.853 448.295 248.853C453.201 248.853 458.241 251.04 459.335 257.627H454.241C453.281 254.747 451.068 253.467 448.295 253.467C444.321 253.467 441.281 256.48 441.281 260.8C441.281 265.093 444.321 268.133 448.295 268.133C451.068 268.133 453.281 266.853 454.241 263.947H459.335C458.241 270.56 453.255 272.747 448.295 272.747ZM482.734 272H477.454L473.774 265.333H466.547V272H461.24V249.6H473C479 249.6 482.174 252.4 482.174 257.627C482.174 260.747 480.654 263.013 478.36 264.267L482.734 272ZM466.547 254.053V261.253H472.707C475.4 261.253 476.894 260.027 476.894 257.653C476.894 255.28 475.4 254.053 472.707 254.053H466.547ZM505.964 249.6V254.053H497.564V272H492.23V254.053H483.857V249.6H505.964Z" fill="white" fill-opacity="0.6"/>
  <path d="M1399.44 190.6C1408.13 190.6 1411.44 195.427 1411.44 201.8C1411.44 208.173 1408.13 213 1399.44 213H1389.15V190.6H1399.44ZM1399.41 208.52C1403.76 208.52 1406.11 206.12 1406.11 201.8C1406.11 197.48 1403.76 195.08 1399.41 195.08H1394.51L1394.45 208.52H1399.41ZM1425.29 213.747C1418.04 213.747 1413.03 208.84 1413.03 201.8C1413.03 194.76 1418.04 189.853 1425.29 189.853C1430.2 189.853 1435.24 192.04 1436.33 198.627H1431.24C1430.28 195.747 1428.07 194.467 1425.29 194.467C1421.32 194.467 1418.28 197.48 1418.28 201.8C1418.28 206.093 1421.32 209.133 1425.29 209.133C1428.07 209.133 1430.28 207.853 1431.24 204.947H1436.33C1435.24 211.56 1430.25 213.747 1425.29 213.747ZM1459.73 213H1454.45L1450.77 206.333H1443.55V213H1438.24V190.6H1450C1456 190.6 1459.17 193.4 1459.17 198.627C1459.17 201.747 1457.65 204.013 1455.36 205.267L1459.73 213ZM1443.55 195.053V202.253H1449.71C1452.4 202.253 1453.89 201.027 1453.89 198.653C1453.89 196.28 1452.4 195.053 1449.71 195.053H1443.55ZM1482.96 190.6V195.053H1474.56V213H1469.23V195.053H1460.86V190.6H1482.96Z" fill="white" fill-opacity="0.6"/>
  <path d="M565.64 272H560.36L556.68 265.333H549.453V272H544.147V249.6H555.907C561.907 249.6 565.08 252.4 565.08 257.627C565.08 260.747 563.56 263.013 561.267 264.267L565.64 272ZM549.453 254.053V261.253H555.613C558.307 261.253 559.8 260.027 559.8 257.653C559.8 255.28 558.307 254.053 555.613 254.053H549.453ZM567.428 272V249.6H586.281V253.947H572.735V258.853H585.801V262.693H572.735V267.627H586.281V272H567.428ZM611.583 260.16V272H608.25L608.196 268.747C606.65 271.093 603.823 272.747 599.85 272.747C593.076 272.747 587.903 267.84 587.903 260.8C587.903 253.76 592.916 248.853 600.276 248.853C605.13 248.853 610.036 251.12 611.236 256.747H605.93C605.076 254.72 603.05 253.467 600.356 253.467C596.196 253.467 593.156 256.48 593.156 260.8C593.156 265.093 596.223 268.133 600.25 268.133C602.49 268.133 605.61 267.147 606.383 263.76H599.876V260.16H611.583ZM613.99 272V249.6H619.297V272H613.99ZM631.451 272.747C624.624 272.747 621.024 270.32 621.051 265.067H625.851C626.037 267.173 627.771 268.507 631.451 268.533C634.918 268.533 636.811 267.36 636.811 265.6C636.811 264.053 635.558 263.28 632.891 262.827L630.118 262.347C625.878 261.6 621.664 260.48 621.664 255.6C621.664 251.36 625.238 248.853 631.504 248.853C637.344 248.853 641.398 250.907 641.451 256.453H636.677C636.331 254.427 634.758 253.067 631.398 253.067C628.358 253.067 626.758 254.107 626.758 255.84C626.758 257.2 627.851 258.053 630.144 258.48L632.571 258.907C636.837 259.68 642.091 260.4 642.091 265.76C642.091 270.213 638.438 272.747 631.451 272.747ZM664.683 249.6V254.053H656.283V272H650.949V254.053H642.576V249.6H664.683ZM688.296 272H683.016L679.336 265.333H672.11V272H666.803V249.6H678.563C684.563 249.6 687.736 252.4 687.736 257.627C687.736 260.747 686.216 263.013 683.923 264.267L688.296 272ZM672.11 254.053V261.253H678.27C680.963 261.253 682.456 260.027 682.456 257.653C682.456 255.28 680.963 254.053 678.27 254.053H672.11ZM708.185 272L706.798 268.24H695.758L694.371 272H688.878L697.545 249.6H705.011L713.705 272H708.185ZM697.251 264.213H705.305L701.785 254.64H700.771L697.251 264.213ZM732.62 249.6V254.053H724.22V272H718.887V254.053H710.513V249.6H732.62ZM734.74 272V249.6H740.047V272H734.74ZM754.227 272.747C746.921 272.747 741.934 267.84 741.934 260.8C741.934 253.76 746.921 248.853 754.227 248.853C761.561 248.853 766.548 253.76 766.548 260.8C766.548 267.84 761.561 272.747 754.227 272.747ZM754.227 268.133C758.228 268.133 761.267 265.2 761.267 260.8C761.267 256.4 758.228 253.467 754.227 253.467C750.254 253.467 747.188 256.4 747.188 260.8C747.188 265.2 750.254 268.133 754.227 268.133ZM768.428 272V249.6H774.588L784.988 264.667H785.495V249.6H790.695V272H784.641L774.108 256.933H773.628V272H768.428Z" fill="white" fill-opacity="0.6"/>
  <path d="M342.013 272.747C334.76 272.747 329.747 267.84 329.747 260.8C329.747 253.76 334.76 248.853 342.013 248.853C346.92 248.853 351.96 251.04 353.053 257.627H347.96C347 254.747 344.787 253.467 342.013 253.467C338.04 253.467 335 256.48 335 260.8C335 265.093 338.04 268.133 342.013 268.133C344.787 268.133 347 266.853 347.96 263.947H353.053C351.96 270.56 346.973 272.747 342.013 272.747ZM365.759 272.747C358.852 272.747 354.959 269.493 354.959 262.667V249.6H360.319V262.533C360.319 266.107 362.106 268.267 365.759 268.267C369.413 268.267 371.226 266.107 371.226 262.533V249.6H376.559V262.667C376.559 269.493 372.666 272.747 365.759 272.747Z" fill="white" fill-opacity="0.6"/>
  <path d="M1318.01 213.747C1310.76 213.747 1305.75 208.84 1305.75 201.8C1305.75 194.76 1310.76 189.853 1318.01 189.853C1322.92 189.853 1327.96 192.04 1329.05 198.627H1323.96C1323 195.747 1320.79 194.467 1318.01 194.467C1314.04 194.467 1311 197.48 1311 201.8C1311 206.093 1314.04 209.133 1318.01 209.133C1320.79 209.133 1323 207.853 1323.96 204.947H1329.05C1327.96 211.56 1322.97 213.747 1318.01 213.747ZM1341.76 213.747C1334.85 213.747 1330.96 210.493 1330.96 203.667V190.6H1336.32V203.533C1336.32 207.107 1338.11 209.267 1341.76 209.267C1345.41 209.267 1347.23 207.107 1347.23 203.533V190.6H1352.56V203.667C1352.56 210.493 1348.67 213.747 1341.76 213.747Z" fill="white" fill-opacity="0.6"/>
  <path d="M1476.01 272.747C1468.76 272.747 1463.75 267.84 1463.75 260.8C1463.75 253.76 1468.76 248.853 1476.01 248.853C1480.92 248.853 1485.96 251.04 1487.05 257.627H1481.96C1481 254.747 1478.79 253.467 1476.01 253.467C1472.04 253.467 1469 256.48 1469 260.8C1469 265.093 1472.04 268.133 1476.01 268.133C1478.79 268.133 1481 266.853 1481.96 263.947H1487.05C1485.96 270.56 1480.97 272.747 1476.01 272.747ZM1499.76 272.747C1492.85 272.747 1488.96 269.493 1488.96 262.667V249.6H1494.32V262.533C1494.32 266.107 1496.11 268.267 1499.76 268.267C1503.41 268.267 1505.23 266.107 1505.23 262.533V249.6H1510.56V262.667C1510.56 269.493 1506.67 272.747 1499.76 272.747Z" fill="white" fill-opacity="0.6"/>
  <path d="M1476.01 96.7467C1468.76 96.7467 1463.75 91.84 1463.75 84.8C1463.75 77.76 1468.76 72.8533 1476.01 72.8533C1480.92 72.8533 1485.96 75.04 1487.05 81.6267H1481.96C1481 78.7467 1478.79 77.4667 1476.01 77.4667C1472.04 77.4667 1469 80.48 1469 84.8C1469 89.0933 1472.04 92.1333 1476.01 92.1333C1478.79 92.1333 1481 90.8533 1481.96 87.9467H1487.05C1485.96 94.56 1480.97 96.7467 1476.01 96.7467ZM1499.76 96.7467C1492.85 96.7467 1488.96 93.4933 1488.96 86.6667V73.6H1494.32V86.5333C1494.32 90.1067 1496.11 92.2667 1499.76 92.2667C1503.41 92.2667 1505.23 90.1067 1505.23 86.5333V73.6H1510.56V86.6667C1510.56 93.4933 1506.67 96.7467 1499.76 96.7467Z" fill="white" fill-opacity="0.6"/>
</svg>
