<svg width="190" height="145" viewBox="0 0 190 145" fill="none" xmlns="http://www.w3.org/2000/svg">
<g filter="url(#filter0_dddddd_1935_4184)">
<path d="M80 6.21818C80 2.78397 82.784 0 86.2182 0H103.782C107.216 0 110 2.78397 110 6.21818V23.7818C110 27.216 107.216 30 103.782 30H86.2182C82.784 30 80 27.216 80 23.7818V6.21818Z" fill="white"/>
</g>
<g filter="url(#filter1_i_1935_4184)">
<path d="M103.206 14.9907C103.206 19.5287 99.5268 23.208 94.9888 23.208C90.4508 23.208 86.7715 19.5287 86.7715 14.9907C86.7715 10.4527 90.4508 6.77344 94.9888 6.77344C99.5268 6.77344 103.206 10.4527 103.206 14.9907Z" fill="black"/>
</g>
<g filter="url(#filter2_i_1935_4184)">
<path d="M89.8749 14.8749C92.7469 13.6115 96.4631 12.0712 96.9763 11.8579C98.3219 11.3 98.7348 11.4068 98.529 12.6427C98.3811 13.531 97.9546 16.4715 97.6144 18.3019C97.4127 19.3874 96.9599 19.516 96.2483 19.0464C95.906 18.8205 94.1783 17.6778 93.8032 17.4095C93.461 17.1651 92.9889 16.8709 93.5809 16.2916C93.7917 16.0853 95.1726 14.7665 96.2487 13.7401C96.3896 13.6054 96.2125 13.3839 96.0498 13.492C94.5995 14.4538 92.5887 15.7887 92.3327 15.9625C91.9461 16.225 91.5747 16.3454 90.9083 16.1539C90.4045 16.0093 89.9127 15.8368 89.7213 15.771C88.9838 15.5179 89.1588 15.1901 89.8749 14.8749Z" fill="white"/>
</g>
<defs>
<filter id="filter0_dddddd_1935_4184" x="0" y="0" width="190" height="210" filterUnits="userSpaceOnUse" color-interpolation-filters="sRGB">
<feFlood flood-opacity="0" result="BackgroundImageFix"/>
<feColorMatrix in="SourceAlpha" type="matrix" values="0 0 0 0 0 0 0 0 0 0 0 0 0 0 0 0 0 0 127 0" result="hardAlpha"/>
<feOffset dy="2.76726"/>
<feGaussianBlur stdDeviation="1.1069"/>
<feColorMatrix type="matrix" values="0 0 0 0 0 0 0 0 0 0 0 0 0 0 0 0 0 0 0.0196802 0"/>
<feBlend mode="normal" in2="BackgroundImageFix" result="effect1_dropShadow_1935_4184"/>
<feColorMatrix in="SourceAlpha" type="matrix" values="0 0 0 0 0 0 0 0 0 0 0 0 0 0 0 0 0 0 127 0" result="hardAlpha"/>
<feOffset dy="6.6501"/>
<feGaussianBlur stdDeviation="2.66004"/>
<feColorMatrix type="matrix" values="0 0 0 0 0 0 0 0 0 0 0 0 0 0 0 0 0 0 0.0282725 0"/>
<feBlend mode="normal" in2="effect1_dropShadow_1935_4184" result="effect2_dropShadow_1935_4184"/>
<feColorMatrix in="SourceAlpha" type="matrix" values="0 0 0 0 0 0 0 0 0 0 0 0 0 0 0 0 0 0 127 0" result="hardAlpha"/>
<feOffset dy="12.5216"/>
<feGaussianBlur stdDeviation="5.00862"/>
<feColorMatrix type="matrix" values="0 0 0 0 0 0 0 0 0 0 0 0 0 0 0 0 0 0 0.035 0"/>
<feBlend mode="normal" in2="effect2_dropShadow_1935_4184" result="effect3_dropShadow_1935_4184"/>
<feColorMatrix in="SourceAlpha" type="matrix" values="0 0 0 0 0 0 0 0 0 0 0 0 0 0 0 0 0 0 127 0" result="hardAlpha"/>
<feOffset dy="22.3363"/>
<feGaussianBlur stdDeviation="8.93452"/>
<feColorMatrix type="matrix" values="0 0 0 0 0 0 0 0 0 0 0 0 0 0 0 0 0 0 0.0417275 0"/>
<feBlend mode="normal" in2="effect3_dropShadow_1935_4184" result="effect4_dropShadow_1935_4184"/>
<feColorMatrix in="SourceAlpha" type="matrix" values="0 0 0 0 0 0 0 0 0 0 0 0 0 0 0 0 0 0 127 0" result="hardAlpha"/>
<feOffset dy="41.7776"/>
<feGaussianBlur stdDeviation="16.711"/>
<feColorMatrix type="matrix" values="0 0 0 0 0 0 0 0 0 0 0 0 0 0 0 0 0 0 0.0503198 0"/>
<feBlend mode="normal" in2="effect4_dropShadow_1935_4184" result="effect5_dropShadow_1935_4184"/>
<feColorMatrix in="SourceAlpha" type="matrix" values="0 0 0 0 0 0 0 0 0 0 0 0 0 0 0 0 0 0 127 0" result="hardAlpha"/>
<feOffset dy="100"/>
<feGaussianBlur stdDeviation="40"/>
<feColorMatrix type="matrix" values="0 0 0 0 0 0 0 0 0 0 0 0 0 0 0 0 0 0 0.07 0"/>
<feBlend mode="normal" in2="effect5_dropShadow_1935_4184" result="effect6_dropShadow_1935_4184"/>
<feBlend mode="normal" in="SourceGraphic" in2="effect6_dropShadow_1935_4184" result="shape"/>
</filter>
<filter id="filter1_i_1935_4184" x="86.7715" y="6.77344" width="16.4336" height="20.4336" filterUnits="userSpaceOnUse" color-interpolation-filters="sRGB">
<feFlood flood-opacity="0" result="BackgroundImageFix"/>
<feBlend mode="normal" in="SourceGraphic" in2="BackgroundImageFix" result="shape"/>
<feColorMatrix in="SourceAlpha" type="matrix" values="0 0 0 0 0 0 0 0 0 0 0 0 0 0 0 0 0 0 127 0" result="hardAlpha"/>
<feOffset dy="4"/>
<feGaussianBlur stdDeviation="7.5"/>
<feComposite in2="hardAlpha" operator="arithmetic" k2="-1" k3="1"/>
<feColorMatrix type="matrix" values="0 0 0 0 0 0 0 0 0 0 0 0 0 0 0 0 0 0 0.2 0"/>
<feBlend mode="normal" in2="shape" result="effect1_innerShadow_1935_4184"/>
</filter>
<filter id="filter2_i_1935_4184" x="89.2461" y="11.5352" width="9.33203" height="11.7695" filterUnits="userSpaceOnUse" color-interpolation-filters="sRGB">
<feFlood flood-opacity="0" result="BackgroundImageFix"/>
<feBlend mode="normal" in="SourceGraphic" in2="BackgroundImageFix" result="shape"/>
<feColorMatrix in="SourceAlpha" type="matrix" values="0 0 0 0 0 0 0 0 0 0 0 0 0 0 0 0 0 0 127 0" result="hardAlpha"/>
<feOffset dy="4"/>
<feGaussianBlur stdDeviation="4"/>
<feComposite in2="hardAlpha" operator="arithmetic" k2="-1" k3="1"/>
<feColorMatrix type="matrix" values="0 0 0 0 0 0 0 0 0 0 0 0 0 0 0 0 0 0 0.2 0"/>
<feBlend mode="normal" in2="shape" result="effect1_innerShadow_1935_4184"/>
</filter>
</defs>
</svg>
