<svg width="48" height="49" viewBox="0 0 48 49" fill="none" xmlns="http://www.w3.org/2000/svg">
<path fill-rule="evenodd" clip-rule="evenodd" d="M1.12587 5.81213C0 7.97951 0 10.827 0 16.5219V32.3219C0 38.0168 0 40.8642 1.12587 43.0316C2.07462 44.8581 3.56382 46.3473 5.39026 47.296C7.55764 48.4219 10.4051 48.4219 16.1 48.4219H31.9C37.5949 48.4219 40.4424 48.4219 42.6097 47.296C44.4362 46.3473 45.9254 44.8581 46.8741 43.0316C48 40.8642 48 38.0168 48 32.3219V16.5219C48 10.827 48 7.97951 46.8741 5.81213C45.9254 3.9857 44.4362 2.4965 42.6097 1.54774C40.4424 0.421875 37.5949 0.421875 31.9 0.421875H16.1C10.4051 0.421875 7.55764 0.421875 5.39026 1.54774C3.56382 2.4965 2.07462 3.9857 1.12587 5.81213ZM37.3384 19.4734C37.3384 19.1736 37.3345 18.8739 37.3229 18.5741C38.5645 17.6065 39.6395 16.3939 40.4935 15.0175C39.3552 15.5626 38.1278 15.9303 36.841 16.0938C38.1562 15.2489 39.1627 13.9001 39.6394 12.292C38.4095 13.0824 37.0503 13.6547 35.5994 13.9545C34.4405 12.6191 32.7893 11.7877 30.9612 11.7877C27.4496 11.7877 24.6033 14.8675 24.6033 18.6696C24.6033 19.201 24.6589 19.7324 24.7675 20.2366C19.4845 19.9504 14.7985 17.2113 11.6641 13.0413C11.1137 14.0633 10.8011 15.249 10.8011 16.5027C10.8011 18.8875 11.9238 20.9997 13.6318 22.2398C12.5892 22.1989 11.6073 21.8856 10.7494 21.3814V21.4633C10.7494 24.802 12.9419 27.5819 15.8527 28.2088C15.3153 28.3723 14.7546 28.454 14.177 28.454C13.7675 28.454 13.367 28.413 12.9781 28.3312C13.7882 31.0567 16.137 33.0599 18.9186 33.1008C16.7429 34.9541 14.0001 36.0582 11.022 36.0582C10.5091 36.0582 10.004 36.0172 9.50655 35.9627C12.3205 37.9114 15.6603 39.0561 19.252 39.0561C30.9444 39.0561 37.3384 28.5629 37.3384 19.4734Z" fill="white" fill-opacity="0.7"/>
</svg>
