<svg width="48" height="49" viewBox="0 0 48 49" fill="none" xmlns="http://www.w3.org/2000/svg">
<path fill-rule="evenodd" clip-rule="evenodd" d="M1.12587 5.81213C0 7.97951 0 10.827 0 16.5219V32.3219C0 38.0168 0 40.8642 1.12587 43.0316C2.07462 44.8581 3.56382 46.3473 5.39026 47.296C7.55764 48.4219 10.4051 48.4219 16.1 48.4219H31.9C37.5949 48.4219 40.4424 48.4219 42.6097 47.296C44.4362 46.3473 45.9254 44.8581 46.8741 43.0316C48 40.8642 48 38.0168 48 32.3219V16.5219C48 10.827 48 7.97951 46.8741 5.81213C45.9254 3.9857 44.4362 2.4965 42.6097 1.54774C40.4424 0.421875 37.5949 0.421875 31.9 0.421875H16.1C10.4051 0.421875 7.55764 0.421875 5.39026 1.54774C3.56382 2.4965 2.07462 3.9857 1.12587 5.81213ZM41.2585 15.3658C40.8433 13.8238 39.6275 12.608 38.0855 12.1929C35.2684 11.4219 23.9999 11.4219 23.9999 11.4219C23.9999 11.4219 12.7314 11.4219 9.91432 12.1632C8.40197 12.5784 7.1565 13.8238 6.74135 15.3658C6 18.183 6 24.0248 6 24.0248C6 24.0248 6 29.8963 6.74135 32.6837C7.1565 34.2257 8.37231 35.4415 9.91432 35.8567C12.7611 36.6277 23.9999 36.6277 23.9999 36.6277C23.9999 36.6277 35.2684 36.6277 38.0855 35.8864C39.6275 35.4712 40.8433 34.2554 41.2585 32.7134C41.9998 29.8963 41.9998 24.0544 41.9998 24.0544C41.9998 24.0544 42.0295 18.183 41.2585 15.3658ZM20.4118 29.2159L29.7824 23.8189L20.4118 18.4219V29.2159Z" fill="white" fill-opacity="0.7"/>
</svg>
